<mxfile host="app.diagrams.net" agent="Mozilla/5.0 (Windows NT 10.0; Win64; x64) AppleWebKit/537.36 (KHTML, like Gecko) Chrome/135.0.0.0 Safari/537.36" version="26.2.14">
  <diagram name="Página-1" id="hKb-DoK3libKYTuIWPAE">
    <mxGraphModel dx="1442" dy="562" grid="1" gridSize="10" guides="0" tooltips="0" connect="1" arrows="1" fold="1" page="0" pageScale="1" pageWidth="827" pageHeight="1169" math="0" shadow="0">
      <root>
        <mxCell id="0" />
        <mxCell id="1" parent="0" />
        <mxCell id="OjrucDtKJIPMSF6clYTV-50" style="edgeStyle=orthogonalEdgeStyle;rounded=0;orthogonalLoop=1;jettySize=auto;html=1;exitX=0.25;exitY=1;exitDx=0;exitDy=0;entryX=0.25;entryY=0;entryDx=0;entryDy=0;dashed=1;" parent="1" source="OjrucDtKJIPMSF6clYTV-47" target="OjrucDtKJIPMSF6clYTV-49" edge="1">
          <mxGeometry relative="1" as="geometry" />
        </mxCell>
        <mxCell id="OjrucDtKJIPMSF6clYTV-51" style="edgeStyle=orthogonalEdgeStyle;rounded=0;orthogonalLoop=1;jettySize=auto;html=1;exitX=0.75;exitY=0;exitDx=0;exitDy=0;entryX=0.75;entryY=1;entryDx=0;entryDy=0;dashed=1;" parent="1" source="OjrucDtKJIPMSF6clYTV-49" target="OjrucDtKJIPMSF6clYTV-47" edge="1">
          <mxGeometry relative="1" as="geometry" />
        </mxCell>
        <mxCell id="1BzvqXKQm6UPAYvCy_TO-1" value="Usuário" style="swimlane;horizontal=0;whiteSpace=wrap;html=1;fillColor=#dae8fc;strokeColor=#6c8ebf;" parent="1" vertex="1">
          <mxGeometry x="80" y="100" width="520" height="200" as="geometry" />
        </mxCell>
        <mxCell id="1BzvqXKQm6UPAYvCy_TO-23" value="Procurar receita" style="rounded=1;whiteSpace=wrap;html=1;" parent="1BzvqXKQm6UPAYvCy_TO-1" vertex="1">
          <mxGeometry x="160" y="70" width="160" height="60" as="geometry" />
        </mxCell>
        <mxCell id="1BzvqXKQm6UPAYvCy_TO-25" value="" style="endArrow=classic;html=1;rounded=0;exitX=1;exitY=0.5;exitDx=0;exitDy=0;entryX=0;entryY=0.5;entryDx=0;entryDy=0;" parent="1BzvqXKQm6UPAYvCy_TO-1" source="1BzvqXKQm6UPAYvCy_TO-23" target="1BzvqXKQm6UPAYvCy_TO-27" edge="1">
          <mxGeometry width="50" height="50" relative="1" as="geometry">
            <mxPoint x="315" y="122.5" as="sourcePoint" />
            <mxPoint x="375" y="100" as="targetPoint" />
          </mxGeometry>
        </mxCell>
        <mxCell id="1BzvqXKQm6UPAYvCy_TO-27" value="" style="ellipse;whiteSpace=wrap;html=1;aspect=fixed;fillColor=#f8cecc;strokeColor=#b85450;" parent="1BzvqXKQm6UPAYvCy_TO-1" vertex="1">
          <mxGeometry x="380" y="77.5" width="45" height="45" as="geometry" />
        </mxCell>
        <mxCell id="1BzvqXKQm6UPAYvCy_TO-21" value="Aplicativo" style="swimlane;horizontal=0;whiteSpace=wrap;html=1;fillColor=#dae8fc;strokeColor=#6c8ebf;" parent="1" vertex="1">
          <mxGeometry x="80" y="320" width="520" height="200" as="geometry" />
        </mxCell>
        <mxCell id="1BzvqXKQm6UPAYvCy_TO-30" value="" style="endArrow=classic;html=1;rounded=0;exitX=1;exitY=0.5;exitDx=0;exitDy=0;entryX=0;entryY=0.5;entryDx=0;entryDy=0;" parent="1BzvqXKQm6UPAYvCy_TO-21" source="1BzvqXKQm6UPAYvCy_TO-28" target="1BzvqXKQm6UPAYvCy_TO-31" edge="1">
          <mxGeometry width="50" height="50" relative="1" as="geometry">
            <mxPoint x="140" y="99.5" as="sourcePoint" />
            <mxPoint x="200" y="99.5" as="targetPoint" />
          </mxGeometry>
        </mxCell>
        <mxCell id="1BzvqXKQm6UPAYvCy_TO-31" value="Verificar receitas" style="rounded=1;whiteSpace=wrap;html=1;" parent="1BzvqXKQm6UPAYvCy_TO-21" vertex="1">
          <mxGeometry x="160" y="70" width="160" height="60" as="geometry" />
        </mxCell>
        <mxCell id="1BzvqXKQm6UPAYvCy_TO-39" value="" style="ellipse;whiteSpace=wrap;html=1;aspect=fixed;fillColor=#f8cecc;strokeColor=#b85450;" parent="1BzvqXKQm6UPAYvCy_TO-21" vertex="1">
          <mxGeometry x="380" y="77.5" width="45" height="45" as="geometry" />
        </mxCell>
        <mxCell id="1BzvqXKQm6UPAYvCy_TO-40" value="" style="shape=message;html=1;html=1;outlineConnect=0;labelPosition=center;verticalLabelPosition=bottom;align=center;verticalAlign=top;fillColor=#f8cecc;strokeColor=#b85450;" parent="1BzvqXKQm6UPAYvCy_TO-21" vertex="1">
          <mxGeometry x="390" y="92.5" width="25" height="15" as="geometry" />
        </mxCell>
        <mxCell id="1BzvqXKQm6UPAYvCy_TO-36" value="" style="endArrow=classic;html=1;rounded=0;exitX=1;exitY=0.5;exitDx=0;exitDy=0;entryX=0;entryY=0.5;entryDx=0;entryDy=0;" parent="1BzvqXKQm6UPAYvCy_TO-21" source="1BzvqXKQm6UPAYvCy_TO-31" target="1BzvqXKQm6UPAYvCy_TO-39" edge="1">
          <mxGeometry width="50" height="50" relative="1" as="geometry">
            <mxPoint x="395" y="422" as="sourcePoint" />
            <mxPoint x="455" y="422" as="targetPoint" />
          </mxGeometry>
        </mxCell>
        <mxCell id="1BzvqXKQm6UPAYvCy_TO-32" value="" style="endArrow=classic;html=1;rounded=0;dashed=1;exitX=0.25;exitY=1;exitDx=0;exitDy=0;" parent="1BzvqXKQm6UPAYvCy_TO-21" source="1BzvqXKQm6UPAYvCy_TO-23" edge="1">
          <mxGeometry width="50" height="50" relative="1" as="geometry">
            <mxPoint x="395" y="432" as="sourcePoint" />
            <mxPoint x="199" y="69" as="targetPoint" />
          </mxGeometry>
        </mxCell>
        <mxCell id="1BzvqXKQm6UPAYvCy_TO-33" value="Parâmetros da procura&lt;div&gt;&amp;nbsp;e ingredientes disponíveis&lt;/div&gt;" style="edgeLabel;html=1;align=center;verticalAlign=middle;resizable=0;points=[];" parent="1BzvqXKQm6UPAYvCy_TO-32" connectable="0" vertex="1">
          <mxGeometry x="0.0314" y="1" relative="1" as="geometry">
            <mxPoint as="offset" />
          </mxGeometry>
        </mxCell>
        <mxCell id="1BzvqXKQm6UPAYvCy_TO-34" value="" style="endArrow=classic;html=1;rounded=0;dashed=1;startSize=0;" parent="1BzvqXKQm6UPAYvCy_TO-21" edge="1">
          <mxGeometry width="50" height="50" relative="1" as="geometry">
            <mxPoint x="295" y="70" as="sourcePoint" />
            <mxPoint x="295" y="-90" as="targetPoint" />
          </mxGeometry>
        </mxCell>
        <mxCell id="1BzvqXKQm6UPAYvCy_TO-35" value="Receitas" style="edgeLabel;html=1;align=center;verticalAlign=middle;resizable=0;points=[];" parent="1BzvqXKQm6UPAYvCy_TO-34" connectable="0" vertex="1">
          <mxGeometry x="-0.0483" relative="1" as="geometry">
            <mxPoint as="offset" />
          </mxGeometry>
        </mxCell>
        <mxCell id="1BzvqXKQm6UPAYvCy_TO-22" value="" style="ellipse;whiteSpace=wrap;html=1;aspect=fixed;fillColor=#d5e8d4;strokeColor=#82b366;" parent="1BzvqXKQm6UPAYvCy_TO-21" vertex="1">
          <mxGeometry x="60" y="-142.5" width="45" height="45" as="geometry" />
        </mxCell>
        <mxCell id="1BzvqXKQm6UPAYvCy_TO-28" value="" style="ellipse;whiteSpace=wrap;html=1;aspect=fixed;fillColor=#d5e8d4;strokeColor=#82b366;" parent="1BzvqXKQm6UPAYvCy_TO-21" vertex="1">
          <mxGeometry x="60" y="77.5" width="45" height="45" as="geometry" />
        </mxCell>
        <mxCell id="1BzvqXKQm6UPAYvCy_TO-29" value="" style="shape=message;html=1;html=1;outlineConnect=0;labelPosition=center;verticalLabelPosition=bottom;align=center;verticalAlign=top;fillColor=#d5e8d4;strokeColor=#82b366;" parent="1BzvqXKQm6UPAYvCy_TO-21" vertex="1">
          <mxGeometry x="70" y="92.5" width="25" height="15" as="geometry" />
        </mxCell>
        <mxCell id="1BzvqXKQm6UPAYvCy_TO-41" value="As Is - Procurar Receitas" style="text;html=1;align=center;verticalAlign=middle;resizable=0;points=[];autosize=1;strokeColor=#666666;fillColor=#f5f5f5;fontSize=23;fontColor=#333333;" parent="1" vertex="1">
          <mxGeometry x="80" y="50" width="280" height="40" as="geometry" />
        </mxCell>
        <mxCell id="1BzvqXKQm6UPAYvCy_TO-42" value="Usuário" style="swimlane;horizontal=0;whiteSpace=wrap;html=1;fillColor=#dae8fc;strokeColor=#6c8ebf;" parent="1" vertex="1">
          <mxGeometry x="650" y="100" width="520" height="200" as="geometry" />
        </mxCell>
        <mxCell id="1BzvqXKQm6UPAYvCy_TO-43" value="" style="ellipse;whiteSpace=wrap;html=1;aspect=fixed;fillColor=#d5e8d4;strokeColor=#82b366;" parent="1BzvqXKQm6UPAYvCy_TO-42" vertex="1">
          <mxGeometry x="55" y="77.5" width="45" height="45" as="geometry" />
        </mxCell>
        <mxCell id="1BzvqXKQm6UPAYvCy_TO-44" value="Informa ingredientes" style="rounded=1;whiteSpace=wrap;html=1;" parent="1BzvqXKQm6UPAYvCy_TO-42" vertex="1">
          <mxGeometry x="145" y="70" width="155" height="60" as="geometry" />
        </mxCell>
        <mxCell id="1BzvqXKQm6UPAYvCy_TO-45" value="" style="endArrow=classic;html=1;rounded=0;exitX=1;exitY=0.5;exitDx=0;exitDy=0;entryX=0;entryY=0.5;entryDx=0;entryDy=0;" parent="1BzvqXKQm6UPAYvCy_TO-42" source="1BzvqXKQm6UPAYvCy_TO-43" target="1BzvqXKQm6UPAYvCy_TO-44" edge="1">
          <mxGeometry width="50" height="50" relative="1" as="geometry">
            <mxPoint x="205" y="490" as="sourcePoint" />
            <mxPoint x="265" y="490" as="targetPoint" />
          </mxGeometry>
        </mxCell>
        <mxCell id="1BzvqXKQm6UPAYvCy_TO-46" value="" style="endArrow=classic;html=1;rounded=0;exitX=1;exitY=0.5;exitDx=0;exitDy=0;" parent="1BzvqXKQm6UPAYvCy_TO-42" source="1BzvqXKQm6UPAYvCy_TO-44" edge="1">
          <mxGeometry width="50" height="50" relative="1" as="geometry">
            <mxPoint x="290" y="122.5" as="sourcePoint" />
            <mxPoint x="350" y="100" as="targetPoint" />
          </mxGeometry>
        </mxCell>
        <mxCell id="1BzvqXKQm6UPAYvCy_TO-47" value="" style="ellipse;whiteSpace=wrap;html=1;aspect=fixed;fillColor=#f8cecc;strokeColor=#b85450;" parent="1BzvqXKQm6UPAYvCy_TO-42" vertex="1">
          <mxGeometry x="350" y="77.5" width="45" height="45" as="geometry" />
        </mxCell>
        <mxCell id="1BzvqXKQm6UPAYvCy_TO-48" value="Aplicativo" style="swimlane;horizontal=0;whiteSpace=wrap;html=1;fillColor=#dae8fc;strokeColor=#6c8ebf;" parent="1" vertex="1">
          <mxGeometry x="650" y="320" width="520" height="200" as="geometry" />
        </mxCell>
        <mxCell id="1BzvqXKQm6UPAYvCy_TO-49" value="" style="ellipse;whiteSpace=wrap;html=1;aspect=fixed;fillColor=#d5e8d4;strokeColor=#82b366;" parent="1BzvqXKQm6UPAYvCy_TO-48" vertex="1">
          <mxGeometry x="55" y="77.5" width="45" height="45" as="geometry" />
        </mxCell>
        <mxCell id="1BzvqXKQm6UPAYvCy_TO-50" value="" style="shape=message;html=1;html=1;outlineConnect=0;labelPosition=center;verticalLabelPosition=bottom;align=center;verticalAlign=top;fillColor=#d5e8d4;strokeColor=#82b366;" parent="1BzvqXKQm6UPAYvCy_TO-48" vertex="1">
          <mxGeometry x="65" y="92.5" width="25" height="15" as="geometry" />
        </mxCell>
        <mxCell id="1BzvqXKQm6UPAYvCy_TO-51" value="" style="endArrow=classic;html=1;rounded=0;exitX=1;exitY=0.5;exitDx=0;exitDy=0;entryX=0;entryY=0.5;entryDx=0;entryDy=0;" parent="1BzvqXKQm6UPAYvCy_TO-48" source="1BzvqXKQm6UPAYvCy_TO-49" target="1BzvqXKQm6UPAYvCy_TO-52" edge="1">
          <mxGeometry width="50" height="50" relative="1" as="geometry">
            <mxPoint x="140" y="99.5" as="sourcePoint" />
            <mxPoint x="200" y="99.5" as="targetPoint" />
          </mxGeometry>
        </mxCell>
        <mxCell id="1BzvqXKQm6UPAYvCy_TO-52" value="Registra ingredientes" style="rounded=1;whiteSpace=wrap;html=1;" parent="1BzvqXKQm6UPAYvCy_TO-48" vertex="1">
          <mxGeometry x="150" y="70" width="160" height="60" as="geometry" />
        </mxCell>
        <mxCell id="1BzvqXKQm6UPAYvCy_TO-53" value="" style="ellipse;whiteSpace=wrap;html=1;aspect=fixed;fillColor=#f8cecc;strokeColor=#b85450;" parent="1BzvqXKQm6UPAYvCy_TO-48" vertex="1">
          <mxGeometry x="350" y="77.5" width="45" height="45" as="geometry" />
        </mxCell>
        <mxCell id="1BzvqXKQm6UPAYvCy_TO-54" value="" style="shape=message;html=1;html=1;outlineConnect=0;labelPosition=center;verticalLabelPosition=bottom;align=center;verticalAlign=top;fillColor=#f8cecc;strokeColor=#b85450;" parent="1BzvqXKQm6UPAYvCy_TO-48" vertex="1">
          <mxGeometry x="360" y="92.5" width="25" height="15" as="geometry" />
        </mxCell>
        <mxCell id="1BzvqXKQm6UPAYvCy_TO-55" value="" style="endArrow=classic;html=1;rounded=0;exitX=1;exitY=0.5;exitDx=0;exitDy=0;entryX=0;entryY=0.5;entryDx=0;entryDy=0;" parent="1BzvqXKQm6UPAYvCy_TO-48" source="1BzvqXKQm6UPAYvCy_TO-52" target="1BzvqXKQm6UPAYvCy_TO-53" edge="1">
          <mxGeometry width="50" height="50" relative="1" as="geometry">
            <mxPoint x="380" y="422" as="sourcePoint" />
            <mxPoint x="440" y="422" as="targetPoint" />
          </mxGeometry>
        </mxCell>
        <mxCell id="1BzvqXKQm6UPAYvCy_TO-56" value="As Is - Registrar Ingredientes" style="text;html=1;align=center;verticalAlign=middle;resizable=0;points=[];autosize=1;strokeColor=#666666;fillColor=#f5f5f5;fontSize=23;fontColor=#333333;" parent="1" vertex="1">
          <mxGeometry x="650" y="50" width="320" height="40" as="geometry" />
        </mxCell>
        <mxCell id="1BzvqXKQm6UPAYvCy_TO-24" value="" style="endArrow=classic;html=1;rounded=0;exitX=1;exitY=0.5;exitDx=0;exitDy=0;entryX=0;entryY=0.5;entryDx=0;entryDy=0;" parent="1" source="1BzvqXKQm6UPAYvCy_TO-22" target="1BzvqXKQm6UPAYvCy_TO-23" edge="1">
          <mxGeometry width="50" height="50" relative="1" as="geometry">
            <mxPoint x="285" y="590" as="sourcePoint" />
            <mxPoint x="345" y="590" as="targetPoint" />
          </mxGeometry>
        </mxCell>
        <mxCell id="1BzvqXKQm6UPAYvCy_TO-57" value="Usuário" style="swimlane;horizontal=0;whiteSpace=wrap;html=1;fillColor=#dae8fc;strokeColor=#6c8ebf;" parent="1" vertex="1">
          <mxGeometry x="1220" y="100" width="660" height="200" as="geometry" />
        </mxCell>
        <mxCell id="1BzvqXKQm6UPAYvCy_TO-58" value="" style="ellipse;whiteSpace=wrap;html=1;aspect=fixed;fillColor=#d5e8d4;strokeColor=#82b366;" parent="1BzvqXKQm6UPAYvCy_TO-57" vertex="1">
          <mxGeometry x="55" y="77.5" width="45" height="45" as="geometry" />
        </mxCell>
        <mxCell id="1BzvqXKQm6UPAYvCy_TO-59" value="Configurar lista" style="rounded=1;whiteSpace=wrap;html=1;" parent="1BzvqXKQm6UPAYvCy_TO-57" vertex="1">
          <mxGeometry x="150" y="70" width="155" height="60" as="geometry" />
        </mxCell>
        <mxCell id="1BzvqXKQm6UPAYvCy_TO-60" value="" style="endArrow=classic;html=1;rounded=0;exitX=1;exitY=0.5;exitDx=0;exitDy=0;entryX=0;entryY=0.5;entryDx=0;entryDy=0;" parent="1BzvqXKQm6UPAYvCy_TO-57" source="1BzvqXKQm6UPAYvCy_TO-58" target="1BzvqXKQm6UPAYvCy_TO-59" edge="1">
          <mxGeometry width="50" height="50" relative="1" as="geometry">
            <mxPoint x="205" y="490" as="sourcePoint" />
            <mxPoint x="265" y="490" as="targetPoint" />
          </mxGeometry>
        </mxCell>
        <mxCell id="1BzvqXKQm6UPAYvCy_TO-61" value="" style="endArrow=classic;html=1;rounded=0;exitX=1;exitY=0.5;exitDx=0;exitDy=0;" parent="1BzvqXKQm6UPAYvCy_TO-57" source="1BzvqXKQm6UPAYvCy_TO-59" edge="1">
          <mxGeometry width="50" height="50" relative="1" as="geometry">
            <mxPoint x="290" y="122.5" as="sourcePoint" />
            <mxPoint x="350" y="100" as="targetPoint" />
          </mxGeometry>
        </mxCell>
        <mxCell id="1BzvqXKQm6UPAYvCy_TO-78" value="Pedir Lista" style="rounded=1;whiteSpace=wrap;html=1;" parent="1BzvqXKQm6UPAYvCy_TO-57" vertex="1">
          <mxGeometry x="350" y="70" width="130" height="60" as="geometry" />
        </mxCell>
        <mxCell id="1BzvqXKQm6UPAYvCy_TO-63" value="Aplicativo" style="swimlane;horizontal=0;whiteSpace=wrap;html=1;fillColor=#dae8fc;strokeColor=#6c8ebf;" parent="1" vertex="1">
          <mxGeometry x="1220" y="320" width="660" height="200" as="geometry" />
        </mxCell>
        <mxCell id="1BzvqXKQm6UPAYvCy_TO-64" value="" style="ellipse;whiteSpace=wrap;html=1;aspect=fixed;fillColor=#d5e8d4;strokeColor=#82b366;" parent="1BzvqXKQm6UPAYvCy_TO-63" vertex="1">
          <mxGeometry x="55" y="77.5" width="45" height="45" as="geometry" />
        </mxCell>
        <mxCell id="1BzvqXKQm6UPAYvCy_TO-65" value="" style="shape=message;html=1;html=1;outlineConnect=0;labelPosition=center;verticalLabelPosition=bottom;align=center;verticalAlign=top;fillColor=#d5e8d4;strokeColor=#82b366;" parent="1BzvqXKQm6UPAYvCy_TO-63" vertex="1">
          <mxGeometry x="65" y="92.5" width="25" height="15" as="geometry" />
        </mxCell>
        <mxCell id="1BzvqXKQm6UPAYvCy_TO-66" value="" style="endArrow=classic;html=1;rounded=0;exitX=1;exitY=0.5;exitDx=0;exitDy=0;entryX=0;entryY=0.5;entryDx=0;entryDy=0;" parent="1BzvqXKQm6UPAYvCy_TO-63" source="1BzvqXKQm6UPAYvCy_TO-64" target="1BzvqXKQm6UPAYvCy_TO-67" edge="1">
          <mxGeometry width="50" height="50" relative="1" as="geometry">
            <mxPoint x="140" y="99.5" as="sourcePoint" />
            <mxPoint x="200" y="99.5" as="targetPoint" />
          </mxGeometry>
        </mxCell>
        <mxCell id="1BzvqXKQm6UPAYvCy_TO-67" value="Registrar Informações" style="rounded=1;whiteSpace=wrap;html=1;" parent="1BzvqXKQm6UPAYvCy_TO-63" vertex="1">
          <mxGeometry x="150" y="70" width="160" height="60" as="geometry" />
        </mxCell>
        <mxCell id="1BzvqXKQm6UPAYvCy_TO-70" value="" style="endArrow=classic;html=1;rounded=0;exitX=1;exitY=0.5;exitDx=0;exitDy=0;" parent="1BzvqXKQm6UPAYvCy_TO-63" source="1BzvqXKQm6UPAYvCy_TO-67" edge="1">
          <mxGeometry width="50" height="50" relative="1" as="geometry">
            <mxPoint x="380" y="422" as="sourcePoint" />
            <mxPoint x="360" y="100" as="targetPoint" />
          </mxGeometry>
        </mxCell>
        <mxCell id="1BzvqXKQm6UPAYvCy_TO-79" value="Comparar ingredientes atuais e mínimos" style="rounded=1;whiteSpace=wrap;html=1;" parent="1BzvqXKQm6UPAYvCy_TO-63" vertex="1">
          <mxGeometry x="350" y="70" width="130" height="60" as="geometry" />
        </mxCell>
        <mxCell id="1BzvqXKQm6UPAYvCy_TO-83" value="" style="endArrow=classic;html=1;rounded=0;exitX=1;exitY=0.5;exitDx=0;exitDy=0;entryX=0;entryY=0.5;entryDx=0;entryDy=0;" parent="1BzvqXKQm6UPAYvCy_TO-63" source="1BzvqXKQm6UPAYvCy_TO-79" target="1BzvqXKQm6UPAYvCy_TO-68" edge="1">
          <mxGeometry width="50" height="50" relative="1" as="geometry">
            <mxPoint x="540" y="300" as="sourcePoint" />
            <mxPoint x="590" y="250" as="targetPoint" />
          </mxGeometry>
        </mxCell>
        <mxCell id="1BzvqXKQm6UPAYvCy_TO-62" value="" style="ellipse;whiteSpace=wrap;html=1;aspect=fixed;fillColor=#f8cecc;strokeColor=#b85450;" parent="1BzvqXKQm6UPAYvCy_TO-63" vertex="1">
          <mxGeometry x="540" y="-142.5" width="45" height="45" as="geometry" />
        </mxCell>
        <mxCell id="1BzvqXKQm6UPAYvCy_TO-68" value="" style="ellipse;whiteSpace=wrap;html=1;aspect=fixed;fillColor=#f8cecc;strokeColor=#b85450;" parent="1BzvqXKQm6UPAYvCy_TO-63" vertex="1">
          <mxGeometry x="540" y="77.5" width="45" height="45" as="geometry" />
        </mxCell>
        <mxCell id="1BzvqXKQm6UPAYvCy_TO-69" value="" style="shape=message;html=1;html=1;outlineConnect=0;labelPosition=center;verticalLabelPosition=bottom;align=center;verticalAlign=top;fillColor=#f8cecc;strokeColor=#b85450;" parent="1BzvqXKQm6UPAYvCy_TO-63" vertex="1">
          <mxGeometry x="550" y="92.5" width="25" height="15" as="geometry" />
        </mxCell>
        <mxCell id="1BzvqXKQm6UPAYvCy_TO-71" value="As Is - Criar Lista de Compras" style="text;html=1;align=center;verticalAlign=middle;resizable=0;points=[];autosize=1;strokeColor=#666666;fillColor=#f5f5f5;fontSize=23;fontColor=#333333;" parent="1" vertex="1">
          <mxGeometry x="1220" y="50" width="330" height="40" as="geometry" />
        </mxCell>
        <mxCell id="1BzvqXKQm6UPAYvCy_TO-72" value="" style="endArrow=classic;html=1;rounded=0;dashed=1;exitX=0.206;exitY=1.01;exitDx=0;exitDy=0;exitPerimeter=0;entryX=0.167;entryY=-0.02;entryDx=0;entryDy=0;entryPerimeter=0;" parent="1" source="1BzvqXKQm6UPAYvCy_TO-44" target="1BzvqXKQm6UPAYvCy_TO-52" edge="1">
          <mxGeometry width="50" height="50" relative="1" as="geometry">
            <mxPoint x="840" y="270" as="sourcePoint" />
            <mxPoint x="830" y="390" as="targetPoint" />
          </mxGeometry>
        </mxCell>
        <mxCell id="1BzvqXKQm6UPAYvCy_TO-74" value="Ingredientes" style="edgeLabel;html=1;align=center;verticalAlign=middle;resizable=0;points=[];" parent="1BzvqXKQm6UPAYvCy_TO-72" connectable="0" vertex="1">
          <mxGeometry x="-0.0438" y="1" relative="1" as="geometry">
            <mxPoint as="offset" />
          </mxGeometry>
        </mxCell>
        <mxCell id="1BzvqXKQm6UPAYvCy_TO-73" value="" style="endArrow=classic;html=1;rounded=0;dashed=1;exitX=0.75;exitY=0;exitDx=0;exitDy=0;" parent="1" source="1BzvqXKQm6UPAYvCy_TO-52" edge="1">
          <mxGeometry width="50" height="50" relative="1" as="geometry">
            <mxPoint x="470" y="762" as="sourcePoint" />
            <mxPoint x="920" y="230" as="targetPoint" />
          </mxGeometry>
        </mxCell>
        <mxCell id="1BzvqXKQm6UPAYvCy_TO-75" value="Mensagem de&amp;nbsp;&lt;div&gt;confirmação&lt;/div&gt;" style="edgeLabel;html=1;align=center;verticalAlign=middle;resizable=0;points=[];" parent="1BzvqXKQm6UPAYvCy_TO-73" connectable="0" vertex="1">
          <mxGeometry x="0.0248" y="1" relative="1" as="geometry">
            <mxPoint as="offset" />
          </mxGeometry>
        </mxCell>
        <mxCell id="6-Tp482PSpx0ePpQufkU-1" value="" style="endArrow=classic;html=1;rounded=0;dashed=1;exitX=0.256;exitY=1.039;exitDx=0;exitDy=0;exitPerimeter=0;entryX=0.25;entryY=0;entryDx=0;entryDy=0;" parent="1" source="1BzvqXKQm6UPAYvCy_TO-59" target="1BzvqXKQm6UPAYvCy_TO-67" edge="1">
          <mxGeometry width="50" height="50" relative="1" as="geometry">
            <mxPoint x="1451" y="520" as="sourcePoint" />
            <mxPoint x="1410" y="380" as="targetPoint" />
          </mxGeometry>
        </mxCell>
        <mxCell id="6-Tp482PSpx0ePpQufkU-2" value="Informar quantidades&amp;nbsp;&lt;div&gt;de ingredientes mínimos&lt;/div&gt;" style="edgeLabel;html=1;align=center;verticalAlign=middle;resizable=0;points=[];" parent="6-Tp482PSpx0ePpQufkU-1" connectable="0" vertex="1">
          <mxGeometry x="0.0314" y="1" relative="1" as="geometry">
            <mxPoint y="18" as="offset" />
          </mxGeometry>
        </mxCell>
        <mxCell id="1BzvqXKQm6UPAYvCy_TO-76" value="" style="endArrow=classic;html=1;rounded=0;dashed=1;exitX=0.813;exitY=0;exitDx=0;exitDy=0;exitPerimeter=0;" parent="1" source="1BzvqXKQm6UPAYvCy_TO-67" edge="1">
          <mxGeometry width="50" height="50" relative="1" as="geometry">
            <mxPoint x="1000" y="580" as="sourcePoint" />
            <mxPoint x="1500" y="230" as="targetPoint" />
          </mxGeometry>
        </mxCell>
        <mxCell id="1BzvqXKQm6UPAYvCy_TO-77" value="Mensagem de&amp;nbsp;&lt;div&gt;confirmação&lt;/div&gt;" style="edgeLabel;html=1;align=center;verticalAlign=middle;resizable=0;points=[];" parent="1BzvqXKQm6UPAYvCy_TO-76" connectable="0" vertex="1">
          <mxGeometry x="0.0994" y="-2" relative="1" as="geometry">
            <mxPoint y="-21" as="offset" />
          </mxGeometry>
        </mxCell>
        <mxCell id="1BzvqXKQm6UPAYvCy_TO-80" value="" style="endArrow=classic;html=1;rounded=0;dashed=1;entryX=0.75;entryY=1;entryDx=0;entryDy=0;exitX=0.75;exitY=0;exitDx=0;exitDy=0;" parent="1" source="1BzvqXKQm6UPAYvCy_TO-79" target="1BzvqXKQm6UPAYvCy_TO-78" edge="1">
          <mxGeometry width="50" height="50" relative="1" as="geometry">
            <mxPoint x="1620" y="560" as="sourcePoint" />
            <mxPoint x="1680" y="560" as="targetPoint" />
          </mxGeometry>
        </mxCell>
        <mxCell id="1BzvqXKQm6UPAYvCy_TO-82" value="Lista de Compra" style="edgeLabel;html=1;align=center;verticalAlign=middle;resizable=0;points=[];" parent="1BzvqXKQm6UPAYvCy_TO-80" connectable="0" vertex="1">
          <mxGeometry x="-0.0004" y="-3" relative="1" as="geometry">
            <mxPoint as="offset" />
          </mxGeometry>
        </mxCell>
        <mxCell id="1BzvqXKQm6UPAYvCy_TO-86" value="To Be - Procurar Receitas" style="text;html=1;align=center;verticalAlign=middle;resizable=0;points=[];autosize=1;strokeColor=#666666;fillColor=#f5f5f5;fontSize=23;fontColor=#333333;" parent="1" vertex="1">
          <mxGeometry x="-57" y="665" width="290" height="40" as="geometry" />
        </mxCell>
        <mxCell id="1BzvqXKQm6UPAYvCy_TO-88" value="To Be - Gerenciar Lista de Compras" style="text;html=1;align=center;verticalAlign=middle;resizable=0;points=[];autosize=1;strokeColor=#666666;fillColor=#f5f5f5;fontSize=23;fontColor=#333333;" parent="1" vertex="1">
          <mxGeometry x="2498" y="541" width="385" height="40" as="geometry" />
        </mxCell>
        <mxCell id="1BzvqXKQm6UPAYvCy_TO-84" value="" style="endArrow=classic;html=1;rounded=0;exitX=1;exitY=0.5;exitDx=0;exitDy=0;entryX=0;entryY=0.5;entryDx=0;entryDy=0;" parent="1" source="1BzvqXKQm6UPAYvCy_TO-78" target="1BzvqXKQm6UPAYvCy_TO-62" edge="1">
          <mxGeometry width="50" height="50" relative="1" as="geometry">
            <mxPoint x="1690" y="590" as="sourcePoint" />
            <mxPoint x="1740" y="540" as="targetPoint" />
          </mxGeometry>
        </mxCell>
        <mxCell id="bWT7bV69h-5A01HJKSbz-37" value="Usuário" style="swimlane;horizontal=0;whiteSpace=wrap;html=1;fillColor=#dae8fc;strokeColor=#6c8ebf;" parent="1" vertex="1">
          <mxGeometry x="-100" y="720" width="2060" height="200" as="geometry" />
        </mxCell>
        <mxCell id="bWT7bV69h-5A01HJKSbz-51" value="" style="ellipse;whiteSpace=wrap;html=1;aspect=fixed;fillColor=#d5e8d4;strokeColor=#82b366;" parent="bWT7bV69h-5A01HJKSbz-37" vertex="1">
          <mxGeometry x="60" y="77.5" width="45" height="45" as="geometry" />
        </mxCell>
        <mxCell id="bWT7bV69h-5A01HJKSbz-99" value="Selecionar Categoria" style="rounded=1;whiteSpace=wrap;html=1;" parent="bWT7bV69h-5A01HJKSbz-37" vertex="1">
          <mxGeometry x="159" y="70" width="120" height="60" as="geometry" />
        </mxCell>
        <mxCell id="bWT7bV69h-5A01HJKSbz-54" value="" style="endArrow=classic;html=1;rounded=0;exitX=1;exitY=0.5;exitDx=0;exitDy=0;entryX=0;entryY=0.5;entryDx=0;entryDy=0;" parent="bWT7bV69h-5A01HJKSbz-37" source="bWT7bV69h-5A01HJKSbz-51" target="bWT7bV69h-5A01HJKSbz-99" edge="1">
          <mxGeometry width="50" height="50" relative="1" as="geometry">
            <mxPoint x="205" y="490" as="sourcePoint" />
            <mxPoint x="155" y="100" as="targetPoint" />
          </mxGeometry>
        </mxCell>
        <mxCell id="bWT7bV69h-5A01HJKSbz-188" value="Selecionar Ingredientes" style="rounded=1;whiteSpace=wrap;html=1;" parent="bWT7bV69h-5A01HJKSbz-37" vertex="1">
          <mxGeometry x="519" y="70" width="120" height="60" as="geometry" />
        </mxCell>
        <mxCell id="bWT7bV69h-5A01HJKSbz-209" value="" style="endArrow=classic;html=1;rounded=0;exitX=1;exitY=0.5;exitDx=0;exitDy=0;entryX=0;entryY=0.5;entryDx=0;entryDy=0;" parent="bWT7bV69h-5A01HJKSbz-37" source="bWT7bV69h-5A01HJKSbz-99" target="bWT7bV69h-5A01HJKSbz-188" edge="1">
          <mxGeometry width="50" height="50" relative="1" as="geometry">
            <mxPoint x="-100" y="390" as="sourcePoint" />
            <mxPoint x="-50" y="340" as="targetPoint" />
          </mxGeometry>
        </mxCell>
        <mxCell id="bWT7bV69h-5A01HJKSbz-41" value="Aplicativo" style="swimlane;horizontal=0;whiteSpace=wrap;html=1;fillColor=#dae8fc;strokeColor=#6c8ebf;" parent="1" vertex="1">
          <mxGeometry x="-100" y="940" width="2060" height="210" as="geometry" />
        </mxCell>
        <mxCell id="bWT7bV69h-5A01HJKSbz-42" value="" style="endArrow=classic;html=1;rounded=0;exitX=1;exitY=0.5;exitDx=0;exitDy=0;entryX=0.008;entryY=0.5;entryDx=0;entryDy=0;entryPerimeter=0;" parent="bWT7bV69h-5A01HJKSbz-41" source="bWT7bV69h-5A01HJKSbz-52" target="bWT7bV69h-5A01HJKSbz-102" edge="1">
          <mxGeometry width="50" height="50" relative="1" as="geometry">
            <mxPoint x="135" y="99.5" as="sourcePoint" />
            <mxPoint x="155" y="100" as="targetPoint" />
          </mxGeometry>
        </mxCell>
        <mxCell id="bWT7bV69h-5A01HJKSbz-52" value="" style="ellipse;whiteSpace=wrap;html=1;aspect=fixed;fillColor=#d5e8d4;strokeColor=#82b366;" parent="bWT7bV69h-5A01HJKSbz-41" vertex="1">
          <mxGeometry x="55" y="77.5" width="45" height="45" as="geometry" />
        </mxCell>
        <mxCell id="bWT7bV69h-5A01HJKSbz-53" value="" style="shape=message;html=1;html=1;outlineConnect=0;labelPosition=center;verticalLabelPosition=bottom;align=center;verticalAlign=top;fillColor=#d5e8d4;strokeColor=#82b366;" parent="bWT7bV69h-5A01HJKSbz-41" vertex="1">
          <mxGeometry x="65" y="92.5" width="25" height="15" as="geometry" />
        </mxCell>
        <mxCell id="bWT7bV69h-5A01HJKSbz-102" value="Solicitar categorias" style="rounded=1;whiteSpace=wrap;html=1;" parent="bWT7bV69h-5A01HJKSbz-41" vertex="1">
          <mxGeometry x="159" y="70" width="120" height="60" as="geometry" />
        </mxCell>
        <mxCell id="bWT7bV69h-5A01HJKSbz-193" value="Solicitar ingredientes" style="rounded=1;whiteSpace=wrap;html=1;" parent="bWT7bV69h-5A01HJKSbz-41" vertex="1">
          <mxGeometry x="519" y="70" width="120" height="60" as="geometry" />
        </mxCell>
        <mxCell id="bWT7bV69h-5A01HJKSbz-211" value="" style="endArrow=classic;html=1;rounded=0;exitX=1;exitY=0.5;exitDx=0;exitDy=0;entryX=0;entryY=0.5;entryDx=0;entryDy=0;" parent="bWT7bV69h-5A01HJKSbz-41" source="bWT7bV69h-5A01HJKSbz-102" target="bWT7bV69h-5A01HJKSbz-193" edge="1">
          <mxGeometry width="50" height="50" relative="1" as="geometry">
            <mxPoint x="-110" y="160" as="sourcePoint" />
            <mxPoint x="-60" y="110" as="targetPoint" />
          </mxGeometry>
        </mxCell>
        <mxCell id="0zuMngZoNqm3LEHB2NeD-7" value="" style="endArrow=classic;html=1;rounded=0;exitX=1;exitY=0.5;exitDx=0;exitDy=0;entryX=0;entryY=0.5;entryDx=0;entryDy=0;" parent="bWT7bV69h-5A01HJKSbz-41" source="0zuMngZoNqm3LEHB2NeD-4" target="0zuMngZoNqm3LEHB2NeD-6" edge="1">
          <mxGeometry width="50" height="50" relative="1" as="geometry">
            <mxPoint x="1650" y="100" as="sourcePoint" />
            <mxPoint x="1700" y="50" as="targetPoint" />
          </mxGeometry>
        </mxCell>
        <mxCell id="bWT7bV69h-5A01HJKSbz-79" value="Filtrar receitas baseadas em dados" style="rounded=1;whiteSpace=wrap;html=1;" parent="bWT7bV69h-5A01HJKSbz-41" vertex="1">
          <mxGeometry x="906" y="290" width="170" height="60" as="geometry" />
        </mxCell>
        <mxCell id="bWT7bV69h-5A01HJKSbz-38" value="Procurar receita" style="rounded=1;whiteSpace=wrap;html=1;" parent="bWT7bV69h-5A01HJKSbz-41" vertex="1">
          <mxGeometry x="910" y="-150" width="160" height="60" as="geometry" />
        </mxCell>
        <mxCell id="bWT7bV69h-5A01HJKSbz-89" value="Solicitar receitas baseadas em dados" style="rounded=1;whiteSpace=wrap;html=1;" parent="bWT7bV69h-5A01HJKSbz-41" vertex="1">
          <mxGeometry x="906" y="70" width="169" height="60" as="geometry" />
        </mxCell>
        <mxCell id="bWT7bV69h-5A01HJKSbz-74" value="" style="ellipse;whiteSpace=wrap;html=1;aspect=fixed;fillColor=#f8cecc;strokeColor=#b85450;" parent="bWT7bV69h-5A01HJKSbz-41" vertex="1">
          <mxGeometry x="1130" y="297.5" width="45" height="45" as="geometry" />
        </mxCell>
        <mxCell id="bWT7bV69h-5A01HJKSbz-75" value="" style="shape=message;html=1;html=1;outlineConnect=0;labelPosition=center;verticalLabelPosition=bottom;align=center;verticalAlign=top;fillColor=#f8cecc;strokeColor=#b85450;" parent="bWT7bV69h-5A01HJKSbz-41" vertex="1">
          <mxGeometry x="1140" y="312.5" width="25" height="15" as="geometry" />
        </mxCell>
        <mxCell id="bWT7bV69h-5A01HJKSbz-76" value="" style="endArrow=classic;html=1;rounded=0;exitX=1;exitY=0.5;exitDx=0;exitDy=0;entryX=0;entryY=0.5;entryDx=0;entryDy=0;" parent="bWT7bV69h-5A01HJKSbz-41" target="bWT7bV69h-5A01HJKSbz-74" edge="1">
          <mxGeometry width="50" height="50" relative="1" as="geometry">
            <mxPoint x="1070" y="320" as="sourcePoint" />
            <mxPoint x="1205" y="642" as="targetPoint" />
          </mxGeometry>
        </mxCell>
        <mxCell id="bWT7bV69h-5A01HJKSbz-91" value="" style="endArrow=classic;html=1;rounded=0;dashed=1;startSize=0;entryX=0.724;entryY=1.013;entryDx=0;entryDy=0;entryPerimeter=0;" parent="bWT7bV69h-5A01HJKSbz-41" target="bWT7bV69h-5A01HJKSbz-38" edge="1">
          <mxGeometry width="50" height="50" relative="1" as="geometry">
            <mxPoint x="1026" y="70" as="sourcePoint" />
            <mxPoint x="1070" y="-700" as="targetPoint" />
          </mxGeometry>
        </mxCell>
        <mxCell id="bWT7bV69h-5A01HJKSbz-92" value="Receitas" style="edgeLabel;html=1;align=center;verticalAlign=middle;resizable=0;points=[];" parent="bWT7bV69h-5A01HJKSbz-91" connectable="0" vertex="1">
          <mxGeometry x="-0.0483" relative="1" as="geometry">
            <mxPoint x="4" y="26" as="offset" />
          </mxGeometry>
        </mxCell>
        <mxCell id="bWT7bV69h-5A01HJKSbz-95" value="" style="endArrow=classic;html=1;rounded=0;dashed=1;exitX=0.25;exitY=1;exitDx=0;exitDy=0;entryX=0.25;entryY=0;entryDx=0;entryDy=0;" parent="bWT7bV69h-5A01HJKSbz-41" source="bWT7bV69h-5A01HJKSbz-89" target="bWT7bV69h-5A01HJKSbz-79" edge="1">
          <mxGeometry width="50" height="50" relative="1" as="geometry">
            <mxPoint x="944" y="-81" as="sourcePoint" />
            <mxPoint x="948" y="78" as="targetPoint" />
          </mxGeometry>
        </mxCell>
        <mxCell id="bWT7bV69h-5A01HJKSbz-96" value="Categorias selecionadas,&lt;div&gt;ingredientes selecionados&amp;nbsp;&lt;span style=&quot;background-color: light-dark(#ffffff, var(--ge-dark-color, #121212)); color: light-dark(rgb(0, 0, 0), rgb(255, 255, 255));&quot;&gt;e&amp;nbsp;&lt;/span&gt;&lt;/div&gt;&lt;div&gt;&lt;span style=&quot;background-color: light-dark(#ffffff, var(--ge-dark-color, #121212)); color: light-dark(rgb(0, 0, 0), rgb(255, 255, 255));&quot;&gt;Lista de ingredientes registrados&lt;/span&gt;&lt;/div&gt;" style="edgeLabel;html=1;align=center;verticalAlign=middle;resizable=0;points=[];" parent="bWT7bV69h-5A01HJKSbz-95" connectable="0" vertex="1">
          <mxGeometry x="-0.4333" y="2" relative="1" as="geometry">
            <mxPoint as="offset" />
          </mxGeometry>
        </mxCell>
        <mxCell id="bWT7bV69h-5A01HJKSbz-97" value="" style="endArrow=classic;html=1;rounded=0;dashed=1;startSize=0;entryX=0.773;entryY=1.022;entryDx=0;entryDy=0;exitX=0.771;exitY=-0.039;exitDx=0;exitDy=0;exitPerimeter=0;entryPerimeter=0;" parent="bWT7bV69h-5A01HJKSbz-41" source="bWT7bV69h-5A01HJKSbz-79" target="bWT7bV69h-5A01HJKSbz-89" edge="1">
          <mxGeometry width="50" height="50" relative="1" as="geometry">
            <mxPoint x="1045" y="80" as="sourcePoint" />
            <mxPoint x="1040" y="-80" as="targetPoint" />
          </mxGeometry>
        </mxCell>
        <mxCell id="bWT7bV69h-5A01HJKSbz-98" value="Receitas" style="edgeLabel;html=1;align=center;verticalAlign=middle;resizable=0;points=[];" parent="bWT7bV69h-5A01HJKSbz-97" connectable="0" vertex="1">
          <mxGeometry x="-0.0483" relative="1" as="geometry">
            <mxPoint as="offset" />
          </mxGeometry>
        </mxCell>
        <mxCell id="bWT7bV69h-5A01HJKSbz-117" value="" style="endArrow=classic;html=1;rounded=0;exitX=1;exitY=0.5;exitDx=0;exitDy=0;entryX=0;entryY=0.5;entryDx=0;entryDy=0;" parent="bWT7bV69h-5A01HJKSbz-41" source="bWT7bV69h-5A01HJKSbz-118" target="bWT7bV69h-5A01HJKSbz-79" edge="1">
          <mxGeometry width="50" height="50" relative="1" as="geometry">
            <mxPoint x="910" y="319.5" as="sourcePoint" />
            <mxPoint x="915" y="320" as="targetPoint" />
          </mxGeometry>
        </mxCell>
        <mxCell id="bWT7bV69h-5A01HJKSbz-118" value="" style="ellipse;whiteSpace=wrap;html=1;aspect=fixed;fillColor=#d5e8d4;strokeColor=#82b366;" parent="bWT7bV69h-5A01HJKSbz-41" vertex="1">
          <mxGeometry x="830" y="297.5" width="45" height="45" as="geometry" />
        </mxCell>
        <mxCell id="bWT7bV69h-5A01HJKSbz-119" value="" style="shape=message;html=1;html=1;outlineConnect=0;labelPosition=center;verticalLabelPosition=bottom;align=center;verticalAlign=top;fillColor=#d5e8d4;strokeColor=#82b366;" parent="bWT7bV69h-5A01HJKSbz-41" vertex="1">
          <mxGeometry x="840" y="312.5" width="25" height="15" as="geometry" />
        </mxCell>
        <mxCell id="bWT7bV69h-5A01HJKSbz-212" value="" style="endArrow=classic;html=1;rounded=0;exitX=1;exitY=0.5;exitDx=0;exitDy=0;entryX=0;entryY=0.5;entryDx=0;entryDy=0;" parent="bWT7bV69h-5A01HJKSbz-41" source="bWT7bV69h-5A01HJKSbz-193" target="bWT7bV69h-5A01HJKSbz-89" edge="1">
          <mxGeometry width="50" height="50" relative="1" as="geometry">
            <mxPoint x="-60" y="170" as="sourcePoint" />
            <mxPoint x="-10" y="120" as="targetPoint" />
          </mxGeometry>
        </mxCell>
        <mxCell id="0zuMngZoNqm3LEHB2NeD-5" value="" style="endArrow=classic;html=1;rounded=0;exitX=1;exitY=0.5;exitDx=0;exitDy=0;entryX=0;entryY=0.5;entryDx=0;entryDy=0;" parent="bWT7bV69h-5A01HJKSbz-41" source="bWT7bV69h-5A01HJKSbz-89" target="0zuMngZoNqm3LEHB2NeD-4" edge="1">
          <mxGeometry width="50" height="50" relative="1" as="geometry">
            <mxPoint x="1250" y="160" as="sourcePoint" />
            <mxPoint x="1300" y="110" as="targetPoint" />
          </mxGeometry>
        </mxCell>
        <mxCell id="Urh4bGl8QVrhK2T0n1_F-1" value="Selecionar receita" style="rounded=1;whiteSpace=wrap;html=1;" parent="bWT7bV69h-5A01HJKSbz-41" vertex="1">
          <mxGeometry x="1300" y="-150" width="120" height="60" as="geometry" />
        </mxCell>
        <mxCell id="Urh4bGl8QVrhK2T0n1_F-10" value="" style="endArrow=classic;html=1;rounded=0;exitX=1;exitY=0.5;exitDx=0;exitDy=0;entryX=0;entryY=0.5;entryDx=0;entryDy=0;" parent="bWT7bV69h-5A01HJKSbz-41" source="bWT7bV69h-5A01HJKSbz-38" target="Urh4bGl8QVrhK2T0n1_F-1" edge="1">
          <mxGeometry width="50" height="50" relative="1" as="geometry">
            <mxPoint x="1830" y="40" as="sourcePoint" />
            <mxPoint x="1880" y="-10" as="targetPoint" />
          </mxGeometry>
        </mxCell>
        <mxCell id="0zuMngZoNqm3LEHB2NeD-4" value="Solicitar descrição da receita" style="rounded=1;whiteSpace=wrap;html=1;" parent="bWT7bV69h-5A01HJKSbz-41" vertex="1">
          <mxGeometry x="1300" y="70" width="120" height="60" as="geometry" />
        </mxCell>
        <mxCell id="sOQ2hLrvt8IYlmTNQ9GE-22" value="Solicitação da&amp;nbsp;&lt;div&gt;descrição da receita&lt;/div&gt;" style="edgeLabel;html=1;align=center;verticalAlign=middle;resizable=0;points=[];" parent="bWT7bV69h-5A01HJKSbz-41" connectable="0" vertex="1">
          <mxGeometry x="1330" y="180" as="geometry" />
        </mxCell>
        <mxCell id="Urh4bGl8QVrhK2T0n1_F-13" value="" style="ellipse;whiteSpace=wrap;html=1;aspect=fixed;fillColor=#d5e8d4;strokeColor=#82b366;" parent="bWT7bV69h-5A01HJKSbz-41" vertex="1">
          <mxGeometry x="1210" y="297.5" width="45" height="45" as="geometry" />
        </mxCell>
        <mxCell id="Urh4bGl8QVrhK2T0n1_F-14" value="" style="shape=message;html=1;html=1;outlineConnect=0;labelPosition=center;verticalLabelPosition=bottom;align=center;verticalAlign=top;fillColor=#d5e8d4;strokeColor=#82b366;" parent="bWT7bV69h-5A01HJKSbz-41" vertex="1">
          <mxGeometry x="1220" y="312.5" width="25" height="15" as="geometry" />
        </mxCell>
        <mxCell id="Urh4bGl8QVrhK2T0n1_F-15" value="" style="ellipse;whiteSpace=wrap;html=1;aspect=fixed;fillColor=#f8cecc;strokeColor=#b85450;" parent="bWT7bV69h-5A01HJKSbz-41" vertex="1">
          <mxGeometry x="1460" y="297.5" width="45" height="45" as="geometry" />
        </mxCell>
        <mxCell id="Urh4bGl8QVrhK2T0n1_F-16" value="" style="shape=message;html=1;html=1;outlineConnect=0;labelPosition=center;verticalLabelPosition=bottom;align=center;verticalAlign=top;fillColor=#f8cecc;strokeColor=#b85450;" parent="bWT7bV69h-5A01HJKSbz-41" vertex="1">
          <mxGeometry x="1470" y="312.5" width="25" height="15" as="geometry" />
        </mxCell>
        <mxCell id="Urh4bGl8QVrhK2T0n1_F-17" value="Obter descrição da receita selecionada" style="rounded=1;whiteSpace=wrap;html=1;" parent="bWT7bV69h-5A01HJKSbz-41" vertex="1">
          <mxGeometry x="1300" y="290" width="120" height="60" as="geometry" />
        </mxCell>
        <mxCell id="Urh4bGl8QVrhK2T0n1_F-18" value="" style="endArrow=classic;html=1;rounded=0;exitX=1;exitY=0.5;exitDx=0;exitDy=0;entryX=0;entryY=0.5;entryDx=0;entryDy=0;" parent="bWT7bV69h-5A01HJKSbz-41" source="Urh4bGl8QVrhK2T0n1_F-13" target="Urh4bGl8QVrhK2T0n1_F-17" edge="1">
          <mxGeometry width="50" height="50" relative="1" as="geometry">
            <mxPoint x="1170" y="530" as="sourcePoint" />
            <mxPoint x="1220" y="480" as="targetPoint" />
          </mxGeometry>
        </mxCell>
        <mxCell id="Urh4bGl8QVrhK2T0n1_F-19" value="" style="endArrow=classic;html=1;rounded=0;exitX=1;exitY=0.5;exitDx=0;exitDy=0;entryX=0;entryY=0.5;entryDx=0;entryDy=0;" parent="bWT7bV69h-5A01HJKSbz-41" source="Urh4bGl8QVrhK2T0n1_F-17" target="Urh4bGl8QVrhK2T0n1_F-15" edge="1">
          <mxGeometry width="50" height="50" relative="1" as="geometry">
            <mxPoint x="1460" y="520" as="sourcePoint" />
            <mxPoint x="1510" y="470" as="targetPoint" />
          </mxGeometry>
        </mxCell>
        <mxCell id="sOQ2hLrvt8IYlmTNQ9GE-17" value="" style="endArrow=classic;html=1;rounded=0;dashed=1;entryX=0.75;entryY=1;entryDx=0;entryDy=0;exitX=0.75;exitY=0;exitDx=0;exitDy=0;" parent="bWT7bV69h-5A01HJKSbz-41" source="Urh4bGl8QVrhK2T0n1_F-17" target="0zuMngZoNqm3LEHB2NeD-4" edge="1">
          <mxGeometry width="50" height="50" relative="1" as="geometry">
            <mxPoint x="1350" y="250" as="sourcePoint" />
            <mxPoint x="920" y="480" as="targetPoint" />
          </mxGeometry>
        </mxCell>
        <mxCell id="sOQ2hLrvt8IYlmTNQ9GE-18" value="" style="endArrow=classic;html=1;rounded=0;dashed=1;entryX=0.25;entryY=0;entryDx=0;entryDy=0;exitX=0.25;exitY=1;exitDx=0;exitDy=0;" parent="bWT7bV69h-5A01HJKSbz-41" source="0zuMngZoNqm3LEHB2NeD-4" target="Urh4bGl8QVrhK2T0n1_F-17" edge="1">
          <mxGeometry width="50" height="50" relative="1" as="geometry">
            <mxPoint x="1400" y="300" as="sourcePoint" />
            <mxPoint x="1400" y="137" as="targetPoint" />
          </mxGeometry>
        </mxCell>
        <mxCell id="sOQ2hLrvt8IYlmTNQ9GE-19" value="" style="endArrow=classic;html=1;rounded=0;dashed=1;entryX=0.75;entryY=1;entryDx=0;entryDy=0;exitX=0.75;exitY=0;exitDx=0;exitDy=0;" parent="bWT7bV69h-5A01HJKSbz-41" source="0zuMngZoNqm3LEHB2NeD-4" target="Urh4bGl8QVrhK2T0n1_F-1" edge="1">
          <mxGeometry width="50" height="50" relative="1" as="geometry">
            <mxPoint x="1410" y="310" as="sourcePoint" />
            <mxPoint x="1410" y="147" as="targetPoint" />
          </mxGeometry>
        </mxCell>
        <mxCell id="sOQ2hLrvt8IYlmTNQ9GE-23" value="Descrição&amp;nbsp;&lt;div&gt;da receita&lt;/div&gt;" style="edgeLabel;html=1;align=center;verticalAlign=middle;resizable=0;points=[];" parent="sOQ2hLrvt8IYlmTNQ9GE-19" connectable="0" vertex="1">
          <mxGeometry x="-0.0191" y="-2" relative="1" as="geometry">
            <mxPoint y="10" as="offset" />
          </mxGeometry>
        </mxCell>
        <mxCell id="sOQ2hLrvt8IYlmTNQ9GE-24" value="Descrição&amp;nbsp;&lt;div&gt;da receita&lt;/div&gt;" style="edgeLabel;html=1;align=center;verticalAlign=middle;resizable=0;points=[];" parent="bWT7bV69h-5A01HJKSbz-41" connectable="0" vertex="1">
          <mxGeometry x="1402" y="20" as="geometry">
            <mxPoint x="-7" y="198" as="offset" />
          </mxGeometry>
        </mxCell>
        <mxCell id="bWT7bV69h-5A01HJKSbz-40" value="" style="ellipse;whiteSpace=wrap;html=1;aspect=fixed;fillColor=#f8cecc;strokeColor=#b85450;" parent="bWT7bV69h-5A01HJKSbz-41" vertex="1">
          <mxGeometry x="1720" y="-142.5" width="45" height="45" as="geometry" />
        </mxCell>
        <mxCell id="Urh4bGl8QVrhK2T0n1_F-11" value="Cozinhar" style="rounded=1;whiteSpace=wrap;html=1;" parent="bWT7bV69h-5A01HJKSbz-41" vertex="1">
          <mxGeometry x="1520" y="-150" width="140" height="60" as="geometry" />
        </mxCell>
        <mxCell id="Urh4bGl8QVrhK2T0n1_F-20" value="" style="endArrow=classic;html=1;rounded=0;exitX=1;exitY=0.5;exitDx=0;exitDy=0;entryX=0;entryY=0.5;entryDx=0;entryDy=0;" parent="bWT7bV69h-5A01HJKSbz-41" source="Urh4bGl8QVrhK2T0n1_F-11" target="bWT7bV69h-5A01HJKSbz-40" edge="1">
          <mxGeometry width="50" height="50" relative="1" as="geometry">
            <mxPoint x="1380" y="550" as="sourcePoint" />
            <mxPoint x="1430" y="500" as="targetPoint" />
          </mxGeometry>
        </mxCell>
        <mxCell id="Urh4bGl8QVrhK2T0n1_F-12" value="" style="endArrow=classic;html=1;rounded=0;exitX=1;exitY=0.5;exitDx=0;exitDy=0;entryX=0;entryY=0.5;entryDx=0;entryDy=0;" parent="bWT7bV69h-5A01HJKSbz-41" source="Urh4bGl8QVrhK2T0n1_F-1" target="Urh4bGl8QVrhK2T0n1_F-11" edge="1">
          <mxGeometry width="50" height="50" relative="1" as="geometry">
            <mxPoint x="1880" y="50" as="sourcePoint" />
            <mxPoint x="1930" as="targetPoint" />
          </mxGeometry>
        </mxCell>
        <mxCell id="bWT7bV69h-5A01HJKSbz-44" value="" style="ellipse;whiteSpace=wrap;html=1;aspect=fixed;fillColor=#f8cecc;strokeColor=#b85450;" parent="bWT7bV69h-5A01HJKSbz-41" vertex="1">
          <mxGeometry x="1720" y="77.5" width="45" height="45" as="geometry" />
        </mxCell>
        <mxCell id="bWT7bV69h-5A01HJKSbz-45" value="" style="shape=message;html=1;html=1;outlineConnect=0;labelPosition=center;verticalLabelPosition=bottom;align=center;verticalAlign=top;fillColor=#f8cecc;strokeColor=#b85450;" parent="bWT7bV69h-5A01HJKSbz-41" vertex="1">
          <mxGeometry x="1730" y="92.5" width="25" height="15" as="geometry" />
        </mxCell>
        <mxCell id="0zuMngZoNqm3LEHB2NeD-6" value="Reduzir quantidade de ingredientes registrados" style="rounded=1;whiteSpace=wrap;html=1;" parent="bWT7bV69h-5A01HJKSbz-41" vertex="1">
          <mxGeometry x="1520" y="70" width="153" height="60" as="geometry" />
        </mxCell>
        <mxCell id="0zuMngZoNqm3LEHB2NeD-8" value="" style="endArrow=classic;html=1;rounded=0;exitX=1;exitY=0.5;exitDx=0;exitDy=0;entryX=0;entryY=0.5;entryDx=0;entryDy=0;" parent="bWT7bV69h-5A01HJKSbz-41" source="0zuMngZoNqm3LEHB2NeD-6" target="bWT7bV69h-5A01HJKSbz-44" edge="1">
          <mxGeometry width="50" height="50" relative="1" as="geometry">
            <mxPoint x="1340" y="210" as="sourcePoint" />
            <mxPoint x="1390" y="160" as="targetPoint" />
          </mxGeometry>
        </mxCell>
        <mxCell id="sOQ2hLrvt8IYlmTNQ9GE-27" value="" style="endArrow=classic;html=1;rounded=0;dashed=1;entryX=0.836;entryY=0.967;entryDx=0;entryDy=0;exitX=0.75;exitY=0;exitDx=0;exitDy=0;entryPerimeter=0;" parent="bWT7bV69h-5A01HJKSbz-41" source="0zuMngZoNqm3LEHB2NeD-6" target="Urh4bGl8QVrhK2T0n1_F-11" edge="1">
          <mxGeometry width="50" height="50" relative="1" as="geometry">
            <mxPoint x="1300" y="300" as="sourcePoint" />
            <mxPoint x="1300" y="137" as="targetPoint" />
          </mxGeometry>
        </mxCell>
        <mxCell id="sOQ2hLrvt8IYlmTNQ9GE-30" value="Mensagem&lt;div&gt;&amp;nbsp;de confirmação&lt;/div&gt;" style="edgeLabel;html=1;align=center;verticalAlign=middle;resizable=0;points=[];" parent="sOQ2hLrvt8IYlmTNQ9GE-27" connectable="0" vertex="1">
          <mxGeometry x="0.111" relative="1" as="geometry">
            <mxPoint as="offset" />
          </mxGeometry>
        </mxCell>
        <mxCell id="sOQ2hLrvt8IYlmTNQ9GE-29" value="" style="endArrow=classic;html=1;rounded=0;dashed=1;entryX=0.232;entryY=0.015;entryDx=0;entryDy=0;exitX=0.25;exitY=1;exitDx=0;exitDy=0;entryPerimeter=0;" parent="bWT7bV69h-5A01HJKSbz-41" source="Urh4bGl8QVrhK2T0n1_F-11" target="0zuMngZoNqm3LEHB2NeD-6" edge="1">
          <mxGeometry width="50" height="50" relative="1" as="geometry">
            <mxPoint x="1240" y="137" as="sourcePoint" />
            <mxPoint x="1240" y="300" as="targetPoint" />
          </mxGeometry>
        </mxCell>
        <mxCell id="sOQ2hLrvt8IYlmTNQ9GE-31" value="Confirmação de&amp;nbsp;&lt;div&gt;ter feito a receita&lt;/div&gt;" style="edgeLabel;html=1;align=center;verticalAlign=middle;resizable=0;points=[];" parent="sOQ2hLrvt8IYlmTNQ9GE-29" connectable="0" vertex="1">
          <mxGeometry x="-0.3877" y="-2" relative="1" as="geometry">
            <mxPoint as="offset" />
          </mxGeometry>
        </mxCell>
        <mxCell id="bWT7bV69h-5A01HJKSbz-72" value="API" style="swimlane;horizontal=0;whiteSpace=wrap;html=1;fillColor=#dae8fc;strokeColor=#6c8ebf;" parent="1" vertex="1">
          <mxGeometry x="-100" y="1160" width="2060" height="209" as="geometry" />
        </mxCell>
        <mxCell id="bWT7bV69h-5A01HJKSbz-73" value="" style="endArrow=classic;html=1;rounded=0;exitX=1;exitY=0.5;exitDx=0;exitDy=0;entryX=0;entryY=0.5;entryDx=0;entryDy=0;" parent="bWT7bV69h-5A01HJKSbz-72" source="bWT7bV69h-5A01HJKSbz-77" target="bWT7bV69h-5A01HJKSbz-101" edge="1">
          <mxGeometry width="50" height="50" relative="1" as="geometry">
            <mxPoint x="140" y="99.5" as="sourcePoint" />
            <mxPoint x="145" y="100" as="targetPoint" />
          </mxGeometry>
        </mxCell>
        <mxCell id="bWT7bV69h-5A01HJKSbz-77" value="" style="ellipse;whiteSpace=wrap;html=1;aspect=fixed;fillColor=#d5e8d4;strokeColor=#82b366;" parent="bWT7bV69h-5A01HJKSbz-72" vertex="1">
          <mxGeometry x="60" y="77.5" width="45" height="45" as="geometry" />
        </mxCell>
        <mxCell id="bWT7bV69h-5A01HJKSbz-78" value="" style="shape=message;html=1;html=1;outlineConnect=0;labelPosition=center;verticalLabelPosition=bottom;align=center;verticalAlign=top;fillColor=#d5e8d4;strokeColor=#82b366;" parent="bWT7bV69h-5A01HJKSbz-72" vertex="1">
          <mxGeometry x="70" y="92.5" width="25" height="15" as="geometry" />
        </mxCell>
        <mxCell id="bWT7bV69h-5A01HJKSbz-101" value="Obter categorias" style="rounded=1;whiteSpace=wrap;html=1;" parent="bWT7bV69h-5A01HJKSbz-72" vertex="1">
          <mxGeometry x="159" y="70" width="120" height="60" as="geometry" />
        </mxCell>
        <mxCell id="bWT7bV69h-5A01HJKSbz-111" value="" style="ellipse;whiteSpace=wrap;html=1;aspect=fixed;fillColor=#f8cecc;strokeColor=#b85450;" parent="bWT7bV69h-5A01HJKSbz-72" vertex="1">
          <mxGeometry x="335" y="77.5" width="45" height="45" as="geometry" />
        </mxCell>
        <mxCell id="bWT7bV69h-5A01HJKSbz-112" value="" style="shape=message;html=1;html=1;outlineConnect=0;labelPosition=center;verticalLabelPosition=bottom;align=center;verticalAlign=top;fillColor=#f8cecc;strokeColor=#b85450;" parent="bWT7bV69h-5A01HJKSbz-72" vertex="1">
          <mxGeometry x="345" y="92.5" width="25" height="15" as="geometry" />
        </mxCell>
        <mxCell id="bWT7bV69h-5A01HJKSbz-113" value="" style="endArrow=classic;html=1;rounded=0;exitX=1;exitY=0.5;exitDx=0;exitDy=0;entryX=0;entryY=0.5;entryDx=0;entryDy=0;" parent="bWT7bV69h-5A01HJKSbz-72" source="bWT7bV69h-5A01HJKSbz-101" target="bWT7bV69h-5A01HJKSbz-111" edge="1">
          <mxGeometry width="50" height="50" relative="1" as="geometry">
            <mxPoint x="275" y="100" as="sourcePoint" />
            <mxPoint x="410" y="422" as="targetPoint" />
          </mxGeometry>
        </mxCell>
        <mxCell id="bWT7bV69h-5A01HJKSbz-197" value="Obter ingredientes" style="rounded=1;whiteSpace=wrap;html=1;" parent="bWT7bV69h-5A01HJKSbz-72" vertex="1">
          <mxGeometry x="510" y="74.5" width="120" height="60" as="geometry" />
        </mxCell>
        <mxCell id="bWT7bV69h-5A01HJKSbz-198" value="" style="ellipse;whiteSpace=wrap;html=1;aspect=fixed;fillColor=#f8cecc;strokeColor=#b85450;" parent="bWT7bV69h-5A01HJKSbz-72" vertex="1">
          <mxGeometry x="700" y="82" width="45" height="45" as="geometry" />
        </mxCell>
        <mxCell id="bWT7bV69h-5A01HJKSbz-200" value="" style="endArrow=classic;html=1;rounded=0;exitX=1;exitY=0.5;exitDx=0;exitDy=0;entryX=0;entryY=0.5;entryDx=0;entryDy=0;" parent="bWT7bV69h-5A01HJKSbz-72" source="bWT7bV69h-5A01HJKSbz-197" target="bWT7bV69h-5A01HJKSbz-198" edge="1">
          <mxGeometry width="50" height="50" relative="1" as="geometry">
            <mxPoint x="635" y="111" as="sourcePoint" />
            <mxPoint x="770" y="433" as="targetPoint" />
          </mxGeometry>
        </mxCell>
        <mxCell id="bWT7bV69h-5A01HJKSbz-199" value="" style="shape=message;html=1;html=1;outlineConnect=0;labelPosition=center;verticalLabelPosition=bottom;align=center;verticalAlign=top;fillColor=#f8cecc;strokeColor=#b85450;" parent="bWT7bV69h-5A01HJKSbz-72" vertex="1">
          <mxGeometry x="710" y="97" width="25" height="15" as="geometry" />
        </mxCell>
        <mxCell id="bWT7bV69h-5A01HJKSbz-194" value="" style="endArrow=classic;html=1;rounded=0;exitX=1;exitY=0.5;exitDx=0;exitDy=0;" parent="bWT7bV69h-5A01HJKSbz-72" source="bWT7bV69h-5A01HJKSbz-195" edge="1">
          <mxGeometry width="50" height="50" relative="1" as="geometry">
            <mxPoint x="505" y="99.5" as="sourcePoint" />
            <mxPoint x="510" y="100" as="targetPoint" />
          </mxGeometry>
        </mxCell>
        <mxCell id="bWT7bV69h-5A01HJKSbz-195" value="" style="ellipse;whiteSpace=wrap;html=1;aspect=fixed;fillColor=#d5e8d4;strokeColor=#82b366;" parent="bWT7bV69h-5A01HJKSbz-72" vertex="1">
          <mxGeometry x="425" y="77.5" width="45" height="45" as="geometry" />
        </mxCell>
        <mxCell id="bWT7bV69h-5A01HJKSbz-196" value="" style="shape=message;html=1;html=1;outlineConnect=0;labelPosition=center;verticalLabelPosition=bottom;align=center;verticalAlign=top;fillColor=#d5e8d4;strokeColor=#82b366;" parent="bWT7bV69h-5A01HJKSbz-72" vertex="1">
          <mxGeometry x="435" y="92.5" width="25" height="15" as="geometry" />
        </mxCell>
        <mxCell id="bWT7bV69h-5A01HJKSbz-104" value="" style="endArrow=classic;html=1;rounded=0;dashed=1;exitX=0.25;exitY=1;exitDx=0;exitDy=0;entryX=0.25;entryY=0;entryDx=0;entryDy=0;" parent="1" source="bWT7bV69h-5A01HJKSbz-102" target="bWT7bV69h-5A01HJKSbz-101" edge="1">
          <mxGeometry width="50" height="50" relative="1" as="geometry">
            <mxPoint x="364" y="1652" as="sourcePoint" />
            <mxPoint x="424" y="1652" as="targetPoint" />
          </mxGeometry>
        </mxCell>
        <mxCell id="bWT7bV69h-5A01HJKSbz-106" value="Categoria" style="edgeLabel;html=1;align=center;verticalAlign=middle;resizable=0;points=[];" parent="bWT7bV69h-5A01HJKSbz-104" connectable="0" vertex="1">
          <mxGeometry x="-0.3846" relative="1" as="geometry">
            <mxPoint as="offset" />
          </mxGeometry>
        </mxCell>
        <mxCell id="bWT7bV69h-5A01HJKSbz-107" value="" style="endArrow=classic;html=1;rounded=0;dashed=1;exitX=0.75;exitY=0;exitDx=0;exitDy=0;entryX=0.758;entryY=1;entryDx=0;entryDy=0;entryPerimeter=0;" parent="1" source="bWT7bV69h-5A01HJKSbz-101" target="bWT7bV69h-5A01HJKSbz-102" edge="1">
          <mxGeometry width="50" height="50" relative="1" as="geometry">
            <mxPoint x="364" y="1652" as="sourcePoint" />
            <mxPoint x="424" y="1652" as="targetPoint" />
          </mxGeometry>
        </mxCell>
        <mxCell id="bWT7bV69h-5A01HJKSbz-108" value="Dados das&amp;nbsp;&lt;div&gt;categoria&lt;/div&gt;" style="edgeLabel;html=1;align=center;verticalAlign=middle;resizable=0;points=[];" parent="bWT7bV69h-5A01HJKSbz-107" connectable="0" vertex="1">
          <mxGeometry x="0.3495" relative="1" as="geometry">
            <mxPoint as="offset" />
          </mxGeometry>
        </mxCell>
        <mxCell id="bWT7bV69h-5A01HJKSbz-109" value="" style="endArrow=classic;html=1;rounded=0;dashed=1;exitX=0.5;exitY=0;exitDx=0;exitDy=0;entryX=0.5;entryY=1;entryDx=0;entryDy=0;" parent="1" source="bWT7bV69h-5A01HJKSbz-102" target="bWT7bV69h-5A01HJKSbz-99" edge="1">
          <mxGeometry width="50" height="50" relative="1" as="geometry">
            <mxPoint x="310" y="1240" as="sourcePoint" />
            <mxPoint x="324" y="1080" as="targetPoint" />
          </mxGeometry>
        </mxCell>
        <mxCell id="bWT7bV69h-5A01HJKSbz-110" value="Dados das&lt;div&gt;categoria&lt;/div&gt;" style="edgeLabel;html=1;align=center;verticalAlign=middle;resizable=0;points=[];" parent="bWT7bV69h-5A01HJKSbz-109" connectable="0" vertex="1">
          <mxGeometry x="0.3495" relative="1" as="geometry">
            <mxPoint as="offset" />
          </mxGeometry>
        </mxCell>
        <mxCell id="bWT7bV69h-5A01HJKSbz-203" value="" style="endArrow=classic;html=1;rounded=0;dashed=1;entryX=0.25;entryY=0;entryDx=0;entryDy=0;" parent="1" target="bWT7bV69h-5A01HJKSbz-197" edge="1">
          <mxGeometry width="50" height="50" relative="1" as="geometry">
            <mxPoint x="440" y="1070" as="sourcePoint" />
            <mxPoint x="440" y="1230" as="targetPoint" />
          </mxGeometry>
        </mxCell>
        <mxCell id="bWT7bV69h-5A01HJKSbz-204" value="Ingredientes" style="edgeLabel;html=1;align=center;verticalAlign=middle;resizable=0;points=[];" parent="bWT7bV69h-5A01HJKSbz-203" connectable="0" vertex="1">
          <mxGeometry x="-0.3846" relative="1" as="geometry">
            <mxPoint as="offset" />
          </mxGeometry>
        </mxCell>
        <mxCell id="bWT7bV69h-5A01HJKSbz-205" value="" style="endArrow=classic;html=1;rounded=0;dashed=1;exitX=0.833;exitY=0;exitDx=0;exitDy=0;entryX=0.76;entryY=1.001;entryDx=0;entryDy=0;exitPerimeter=0;entryPerimeter=0;" parent="1" source="bWT7bV69h-5A01HJKSbz-197" target="bWT7bV69h-5A01HJKSbz-193" edge="1">
          <mxGeometry width="50" height="50" relative="1" as="geometry">
            <mxPoint x="724" y="1663" as="sourcePoint" />
            <mxPoint x="784" y="1663" as="targetPoint" />
          </mxGeometry>
        </mxCell>
        <mxCell id="bWT7bV69h-5A01HJKSbz-206" value="Dados dos&amp;nbsp;&lt;div&gt;ingredientes&lt;/div&gt;" style="edgeLabel;html=1;align=center;verticalAlign=middle;resizable=0;points=[];" parent="bWT7bV69h-5A01HJKSbz-205" connectable="0" vertex="1">
          <mxGeometry x="0.3495" relative="1" as="geometry">
            <mxPoint as="offset" />
          </mxGeometry>
        </mxCell>
        <mxCell id="bWT7bV69h-5A01HJKSbz-207" value="" style="endArrow=classic;html=1;rounded=0;dashed=1;exitX=0.5;exitY=0;exitDx=0;exitDy=0;entryX=0.5;entryY=1;entryDx=0;entryDy=0;" parent="1" source="bWT7bV69h-5A01HJKSbz-193" target="bWT7bV69h-5A01HJKSbz-188" edge="1">
          <mxGeometry width="50" height="50" relative="1" as="geometry">
            <mxPoint x="670" y="1251" as="sourcePoint" />
            <mxPoint x="684" y="1091" as="targetPoint" />
          </mxGeometry>
        </mxCell>
        <mxCell id="bWT7bV69h-5A01HJKSbz-208" value="Dados dos&lt;div&gt;ingredientes&lt;/div&gt;" style="edgeLabel;html=1;align=center;verticalAlign=middle;resizable=0;points=[];" parent="bWT7bV69h-5A01HJKSbz-207" connectable="0" vertex="1">
          <mxGeometry x="0.3495" relative="1" as="geometry">
            <mxPoint as="offset" />
          </mxGeometry>
        </mxCell>
        <mxCell id="bWT7bV69h-5A01HJKSbz-210" value="" style="endArrow=classic;html=1;rounded=0;exitX=1;exitY=0.5;exitDx=0;exitDy=0;entryX=0;entryY=0.5;entryDx=0;entryDy=0;" parent="1" source="bWT7bV69h-5A01HJKSbz-188" target="bWT7bV69h-5A01HJKSbz-38" edge="1">
          <mxGeometry width="50" height="50" relative="1" as="geometry">
            <mxPoint x="610" y="810" as="sourcePoint" />
            <mxPoint x="660" y="760" as="targetPoint" />
          </mxGeometry>
        </mxCell>
        <mxCell id="r9TCdDBaU18OwAxZgq-_-206" value="" style="ellipse;whiteSpace=wrap;html=1;aspect=fixed;fillColor=#d5e8d4;strokeColor=#82b366;" parent="1" vertex="1">
          <mxGeometry x="2190" y="120" width="45" height="45" as="geometry" />
        </mxCell>
        <mxCell id="r9TCdDBaU18OwAxZgq-_-207" value="" style="shape=message;html=1;html=1;outlineConnect=0;labelPosition=center;verticalLabelPosition=bottom;align=center;verticalAlign=top;fillColor=#d5e8d4;strokeColor=#82b366;" parent="1" vertex="1">
          <mxGeometry x="2200" y="135" width="25" height="15" as="geometry" />
        </mxCell>
        <mxCell id="r9TCdDBaU18OwAxZgq-_-208" value="" style="ellipse;whiteSpace=wrap;html=1;aspect=fixed;fillColor=#f8cecc;strokeColor=#b85450;" parent="1" vertex="1">
          <mxGeometry x="2270" y="120" width="45" height="45" as="geometry" />
        </mxCell>
        <mxCell id="r9TCdDBaU18OwAxZgq-_-209" value="" style="shape=message;html=1;html=1;outlineConnect=0;labelPosition=center;verticalLabelPosition=bottom;align=center;verticalAlign=top;fillColor=#f8cecc;strokeColor=#b85450;" parent="1" vertex="1">
          <mxGeometry x="2280" y="135" width="25" height="15" as="geometry" />
        </mxCell>
        <mxCell id="r9TCdDBaU18OwAxZgq-_-210" value="" style="ellipse;whiteSpace=wrap;html=1;aspect=fixed;fillColor=#d5e8d4;strokeColor=#82b366;" parent="1" vertex="1">
          <mxGeometry x="2140" y="120" width="45" height="45" as="geometry" />
        </mxCell>
        <mxCell id="r9TCdDBaU18OwAxZgq-_-211" value="" style="ellipse;whiteSpace=wrap;html=1;aspect=fixed;fillColor=#f8cecc;strokeColor=#b85450;" parent="1" vertex="1">
          <mxGeometry x="2320" y="120" width="45" height="45" as="geometry" />
        </mxCell>
        <mxCell id="r9TCdDBaU18OwAxZgq-_-212" value="" style="endArrow=classic;html=1;rounded=0;" parent="1" edge="1">
          <mxGeometry width="50" height="50" relative="1" as="geometry">
            <mxPoint x="2410" y="142" as="sourcePoint" />
            <mxPoint x="2470" y="142" as="targetPoint" />
          </mxGeometry>
        </mxCell>
        <mxCell id="r9TCdDBaU18OwAxZgq-_-213" value="" style="endArrow=classic;html=1;rounded=0;dashed=1;" parent="1" edge="1">
          <mxGeometry width="50" height="50" relative="1" as="geometry">
            <mxPoint x="2410" y="152" as="sourcePoint" />
            <mxPoint x="2470" y="152" as="targetPoint" />
          </mxGeometry>
        </mxCell>
        <mxCell id="r9TCdDBaU18OwAxZgq-_-214" value="Usuário" style="swimlane;horizontal=0;whiteSpace=wrap;html=1;fillColor=#dae8fc;strokeColor=#6c8ebf;" parent="1" vertex="1">
          <mxGeometry x="2586" y="110" width="895" height="200" as="geometry" />
        </mxCell>
        <mxCell id="r9TCdDBaU18OwAxZgq-_-216" value="To Be - Registrar Ingredientes" style="text;html=1;align=center;verticalAlign=middle;resizable=1;points=[];autosize=1;strokeColor=#666666;fillColor=#f5f5f5;fontSize=23;fontColor=#333333;movable=1;rotatable=1;deletable=1;editable=1;locked=0;connectable=1;" parent="1" vertex="1">
          <mxGeometry x="2500" y="1450.5" width="330" height="40" as="geometry" />
        </mxCell>
        <mxCell id="r9TCdDBaU18OwAxZgq-_-217" value="Usuário" style="swimlane;horizontal=0;whiteSpace=wrap;html=1;fillColor=#dae8fc;strokeColor=#6c8ebf;movable=1;resizable=1;rotatable=1;deletable=1;editable=1;locked=0;connectable=1;" parent="1" vertex="1">
          <mxGeometry x="2500" y="1530.5" width="1800" height="202.5" as="geometry" />
        </mxCell>
        <mxCell id="r9TCdDBaU18OwAxZgq-_-218" value="" style="ellipse;whiteSpace=wrap;html=1;aspect=fixed;fillColor=#d5e8d4;strokeColor=#82b366;movable=1;resizable=1;rotatable=1;deletable=1;editable=1;locked=0;connectable=1;" parent="r9TCdDBaU18OwAxZgq-_-217" vertex="1">
          <mxGeometry x="55" y="77.5" width="45" height="45" as="geometry" />
        </mxCell>
        <mxCell id="OjrucDtKJIPMSF6clYTV-42" value="" style="strokeWidth=2;html=1;shape=mxgraph.flowchart.decision;whiteSpace=wrap;fillColor=#fff2cc;strokeColor=#d6b656;" parent="r9TCdDBaU18OwAxZgq-_-217" vertex="1">
          <mxGeometry x="250" y="9.070000000000107" width="60" height="59.75" as="geometry" />
        </mxCell>
        <mxCell id="OjrucDtKJIPMSF6clYTV-43" style="edgeStyle=orthogonalEdgeStyle;rounded=0;orthogonalLoop=1;jettySize=auto;html=1;exitX=1;exitY=0.5;exitDx=0;exitDy=0;entryX=0;entryY=0.5;entryDx=0;entryDy=0;entryPerimeter=0;" parent="r9TCdDBaU18OwAxZgq-_-217" source="r9TCdDBaU18OwAxZgq-_-218" target="OjrucDtKJIPMSF6clYTV-42" edge="1">
          <mxGeometry relative="1" as="geometry" />
        </mxCell>
        <mxCell id="OjrucDtKJIPMSF6clYTV-45" value="Registrar&lt;div&gt;manualmente&lt;/div&gt;" style="text;html=1;align=center;verticalAlign=middle;resizable=0;points=[];autosize=1;strokeColor=none;fillColor=default;" parent="r9TCdDBaU18OwAxZgq-_-217" vertex="1">
          <mxGeometry x="310" width="100" height="40" as="geometry" />
        </mxCell>
        <mxCell id="OjrucDtKJIPMSF6clYTV-46" value="Leitura de código&lt;div&gt;de barras&lt;/div&gt;" style="text;html=1;align=center;verticalAlign=middle;resizable=0;points=[];autosize=1;fillColor=default;" parent="r9TCdDBaU18OwAxZgq-_-217" vertex="1">
          <mxGeometry x="270" y="68.8200000000001" width="120" height="40" as="geometry" />
        </mxCell>
        <mxCell id="OjrucDtKJIPMSF6clYTV-47" value="Captura código de barras" style="rounded=1;whiteSpace=wrap;html=1;" parent="r9TCdDBaU18OwAxZgq-_-217" vertex="1">
          <mxGeometry x="220" y="122.5" width="120" height="60" as="geometry" />
        </mxCell>
        <mxCell id="OjrucDtKJIPMSF6clYTV-48" style="edgeStyle=orthogonalEdgeStyle;rounded=0;orthogonalLoop=1;jettySize=auto;html=1;exitX=0.5;exitY=1;exitDx=0;exitDy=0;exitPerimeter=0;entryX=0.5;entryY=0;entryDx=0;entryDy=0;dashed=1;" parent="r9TCdDBaU18OwAxZgq-_-217" source="OjrucDtKJIPMSF6clYTV-42" target="OjrucDtKJIPMSF6clYTV-47" edge="1">
          <mxGeometry relative="1" as="geometry" />
        </mxCell>
        <mxCell id="h9Z5dXRr7wYHicpKzBdA-1" value="" style="strokeWidth=2;html=1;shape=mxgraph.flowchart.decision;whiteSpace=wrap;fillColor=#fff2cc;strokeColor=#d6b656;" parent="r9TCdDBaU18OwAxZgq-_-217" vertex="1">
          <mxGeometry x="514" y="8.500000000000227" width="60" height="59.75" as="geometry" />
        </mxCell>
        <mxCell id="h9Z5dXRr7wYHicpKzBdA-2" style="edgeStyle=orthogonalEdgeStyle;rounded=0;orthogonalLoop=1;jettySize=auto;html=1;exitX=1;exitY=0.5;exitDx=0;exitDy=0;exitPerimeter=0;entryX=0;entryY=0.5;entryDx=0;entryDy=0;entryPerimeter=0;" parent="r9TCdDBaU18OwAxZgq-_-217" source="OjrucDtKJIPMSF6clYTV-42" target="h9Z5dXRr7wYHicpKzBdA-1" edge="1">
          <mxGeometry relative="1" as="geometry" />
        </mxCell>
        <mxCell id="r9TCdDBaU18OwAxZgq-_-222" value="" style="ellipse;whiteSpace=wrap;html=1;aspect=fixed;fillColor=#f8cecc;strokeColor=#b85450;movable=1;resizable=1;rotatable=1;deletable=1;editable=1;locked=0;connectable=1;" parent="r9TCdDBaU18OwAxZgq-_-217" vertex="1">
          <mxGeometry x="1546.75" y="15.449999999999989" width="45" height="45" as="geometry" />
        </mxCell>
        <mxCell id="OjrucDtKJIPMSF6clYTV-38" style="edgeStyle=orthogonalEdgeStyle;rounded=0;orthogonalLoop=1;jettySize=auto;html=1;exitX=0.25;exitY=1;exitDx=0;exitDy=0;entryX=0.25;entryY=0;entryDx=0;entryDy=0;dashed=1;" parent="r9TCdDBaU18OwAxZgq-_-217" source="r9TCdDBaU18OwAxZgq-_-228" target="OjrucDtKJIPMSF6clYTV-34" edge="1">
          <mxGeometry relative="1" as="geometry" />
        </mxCell>
        <mxCell id="r9TCdDBaU18OwAxZgq-_-219" value="Selecionar ingredientes" style="rounded=1;whiteSpace=wrap;html=1;movable=1;resizable=1;rotatable=1;deletable=1;editable=1;locked=0;connectable=1;" parent="r9TCdDBaU18OwAxZgq-_-217" vertex="1">
          <mxGeometry x="963" y="10.5" width="160" height="60" as="geometry" />
        </mxCell>
        <mxCell id="OjrucDtKJIPMSF6clYTV-6" value="Confirma&lt;div&gt;ingre&lt;span style=&quot;color: rgba(0, 0, 0, 0); font-family: monospace; font-size: 0px; text-align: start; text-wrap-mode: nowrap; background-color: transparent;&quot;&gt;%3CmxGraphModel%3E%3Croot%3E%3CmxCell%20id%3D%220%22%2F%3E%3CmxCell%20id%3D%221%22%20parent%3D%220%22%2F%3E%3CmxCell%20id%3D%222%22%20style%3D%22edgeStyle%3DorthogonalEdgeStyle%3Brounded%3D0%3BorthogonalLoop%3D1%3BjettySize%3Dauto%3Bhtml%3D1%3BexitX%3D1%3BexitY%3D0.5%3BexitDx%3D0%3BexitDy%3D0%3BentryX%3D0%3BentryY%3D0.5%3BentryDx%3D0%3BentryDy%3D0%3B%22%20edge%3D%221%22%20source%3D%223%22%20parent%3D%221%22%3E%3CmxGeometry%20relative%3D%221%22%20as%3D%22geometry%22%3E%3CmxPoint%20x%3D%222720%22%20y%3D%222075%22%20as%3D%22targetPoint%22%2F%3E%3C%2FmxGeometry%3E%3C%2FmxCell%3E%3CmxCell%20id%3D%223%22%20value%3D%22%22%20style%3D%22ellipse%3BwhiteSpace%3Dwrap%3Bhtml%3D1%3Baspect%3Dfixed%3BfillColor%3D%23d5e8d4%3BstrokeColor%3D%2382b366%3B%22%20vertex%3D%221%22%20parent%3D%221%22%3E%3CmxGeometry%20x%3D%222562.5%22%20y%3D%222052%22%20width%3D%2245%22%20height%3D%2245%22%20as%3D%22geometry%22%2F%3E%3C%2FmxCell%3E%3CmxCell%20id%3D%224%22%20value%3D%22%22%20style%3D%22shape%3Dmessage%3Bhtml%3D1%3Bhtml%3D1%3BoutlineConnect%3D0%3BlabelPosition%3Dcenter%3BverticalLabelPosition%3Dbottom%3Balign%3Dcenter%3BverticalAlign%3Dtop%3BfillColor%3D%23d5e8d4%3BstrokeColor%3D%2382b366%3B%22%20vertex%3D%221%22%20parent%3D%221%22%3E%3CmxGeometry%20x%3D%222572.5%22%20y%3D%222067%22%20width%3D%2225%22%20height%3D%2215%22%20as%3D%22geometry%22%2F%3E%3C%2FmxCell%3E%3C%2Froot%3E%3C%2FmxGraphModel%3E&lt;/span&gt;&lt;span style=&quot;background-color: transparent; color: light-dark(rgb(0, 0, 0), rgb(255, 255, 255));&quot;&gt;dientes&lt;/span&gt;&lt;/div&gt;" style="rounded=1;whiteSpace=wrap;html=1;" parent="r9TCdDBaU18OwAxZgq-_-217" vertex="1">
          <mxGeometry x="1380.75" y="8.5" width="120" height="60" as="geometry" />
        </mxCell>
        <mxCell id="OjrucDtKJIPMSF6clYTV-1" value="Selecionar quantidade de ingredientes" style="rounded=1;whiteSpace=wrap;html=1;movable=1;resizable=1;rotatable=1;deletable=1;editable=1;locked=0;connectable=1;" parent="r9TCdDBaU18OwAxZgq-_-217" vertex="1">
          <mxGeometry x="1196.75" y="8.5" width="120" height="60" as="geometry" />
        </mxCell>
        <mxCell id="OjrucDtKJIPMSF6clYTV-5" value="" style="endArrow=classic;html=1;rounded=0;exitX=1;exitY=0.5;exitDx=0;exitDy=0;entryX=0;entryY=0.5;entryDx=0;entryDy=0;movable=1;resizable=1;rotatable=1;deletable=1;editable=1;locked=0;connectable=1;" parent="r9TCdDBaU18OwAxZgq-_-217" target="OjrucDtKJIPMSF6clYTV-1" edge="1">
          <mxGeometry width="50" height="50" relative="1" as="geometry">
            <mxPoint x="1121.75" y="39" as="sourcePoint" />
            <mxPoint x="1161.75" y="38.5" as="targetPoint" />
          </mxGeometry>
        </mxCell>
        <mxCell id="OjrucDtKJIPMSF6clYTV-7" style="edgeStyle=orthogonalEdgeStyle;rounded=0;orthogonalLoop=1;jettySize=auto;html=1;entryX=0;entryY=0.5;entryDx=0;entryDy=0;" parent="r9TCdDBaU18OwAxZgq-_-217" source="OjrucDtKJIPMSF6clYTV-1" target="OjrucDtKJIPMSF6clYTV-6" edge="1">
          <mxGeometry relative="1" as="geometry" />
        </mxCell>
        <mxCell id="OjrucDtKJIPMSF6clYTV-81" style="edgeStyle=orthogonalEdgeStyle;rounded=0;orthogonalLoop=1;jettySize=auto;html=1;exitX=1;exitY=0.5;exitDx=0;exitDy=0;entryX=0;entryY=0.5;entryDx=0;entryDy=0;" parent="r9TCdDBaU18OwAxZgq-_-217" source="r9TCdDBaU18OwAxZgq-_-228" target="OjrucDtKJIPMSF6clYTV-2" edge="1">
          <mxGeometry relative="1" as="geometry" />
        </mxCell>
        <mxCell id="r9TCdDBaU18OwAxZgq-_-228" value="Solicitar ingredientes" style="rounded=1;whiteSpace=wrap;html=1;movable=1;resizable=1;rotatable=1;deletable=1;editable=1;locked=0;connectable=1;" parent="r9TCdDBaU18OwAxZgq-_-217" vertex="1">
          <mxGeometry x="961.75" y="289.87" width="160" height="60" as="geometry" />
        </mxCell>
        <mxCell id="OjrucDtKJIPMSF6clYTV-2" value="Modificar Lista de Ingredientes" style="rounded=1;whiteSpace=wrap;html=1;movable=1;resizable=1;rotatable=1;deletable=1;editable=1;locked=0;connectable=1;" parent="r9TCdDBaU18OwAxZgq-_-217" vertex="1">
          <mxGeometry x="1196.75" y="289.87" width="120" height="60" as="geometry" />
        </mxCell>
        <mxCell id="OjrucDtKJIPMSF6clYTV-32" value="" style="ellipse;whiteSpace=wrap;html=1;aspect=fixed;fillColor=#f8cecc;strokeColor=#b85450;" parent="r9TCdDBaU18OwAxZgq-_-217" vertex="1">
          <mxGeometry x="1164.25" y="521.37" width="45" height="45" as="geometry" />
        </mxCell>
        <mxCell id="OjrucDtKJIPMSF6clYTV-33" value="" style="shape=message;html=1;html=1;outlineConnect=0;labelPosition=center;verticalLabelPosition=bottom;align=center;verticalAlign=top;fillColor=#f8cecc;strokeColor=#b85450;" parent="r9TCdDBaU18OwAxZgq-_-217" vertex="1">
          <mxGeometry x="1174.25" y="536.37" width="25" height="15" as="geometry" />
        </mxCell>
        <mxCell id="OjrucDtKJIPMSF6clYTV-34" value="Obter ingredientes" style="rounded=1;whiteSpace=wrap;html=1;" parent="r9TCdDBaU18OwAxZgq-_-217" vertex="1">
          <mxGeometry x="961.75" y="513.87" width="160" height="60" as="geometry" />
        </mxCell>
        <mxCell id="OjrucDtKJIPMSF6clYTV-36" value="" style="endArrow=classic;html=1;rounded=0;exitX=1;exitY=0.5;exitDx=0;exitDy=0;entryX=0;entryY=0.5;entryDx=0;entryDy=0;" parent="r9TCdDBaU18OwAxZgq-_-217" source="OjrucDtKJIPMSF6clYTV-34" target="OjrucDtKJIPMSF6clYTV-32" edge="1">
          <mxGeometry width="50" height="50" relative="1" as="geometry">
            <mxPoint x="1124.25" y="743.8700000000001" as="sourcePoint" />
            <mxPoint x="1174.25" y="693.87" as="targetPoint" />
          </mxGeometry>
        </mxCell>
        <mxCell id="OjrucDtKJIPMSF6clYTV-39" style="edgeStyle=orthogonalEdgeStyle;rounded=0;orthogonalLoop=1;jettySize=auto;html=1;exitX=0.75;exitY=0;exitDx=0;exitDy=0;entryX=0.75;entryY=1;entryDx=0;entryDy=0;dashed=1;" parent="r9TCdDBaU18OwAxZgq-_-217" source="OjrucDtKJIPMSF6clYTV-34" target="r9TCdDBaU18OwAxZgq-_-228" edge="1">
          <mxGeometry relative="1" as="geometry" />
        </mxCell>
        <mxCell id="OjrucDtKJIPMSF6clYTV-92" value="Ingredientes" style="edgeLabel;html=1;align=center;verticalAlign=middle;resizable=0;points=[];" parent="OjrucDtKJIPMSF6clYTV-39" connectable="0" vertex="1">
          <mxGeometry x="-0.3326" y="2" relative="1" as="geometry">
            <mxPoint y="-10" as="offset" />
          </mxGeometry>
        </mxCell>
        <mxCell id="r9TCdDBaU18OwAxZgq-_-231" value="" style="endArrow=classic;html=1;rounded=0;dashed=1;exitX=0.419;exitY=0.039;exitDx=0;exitDy=0;entryX=0.41;entryY=0.967;entryDx=0;entryDy=0;movable=1;resizable=1;rotatable=1;deletable=1;editable=1;locked=0;connectable=1;exitPerimeter=0;entryPerimeter=0;" parent="r9TCdDBaU18OwAxZgq-_-217" source="r9TCdDBaU18OwAxZgq-_-228" target="r9TCdDBaU18OwAxZgq-_-219" edge="1">
          <mxGeometry width="50" height="50" relative="1" as="geometry">
            <mxPoint x="631.75" y="661.8699999999999" as="sourcePoint" />
            <mxPoint x="691.75" y="661.8699999999999" as="targetPoint" />
          </mxGeometry>
        </mxCell>
        <mxCell id="r9TCdDBaU18OwAxZgq-_-232" value="&lt;span style=&quot;background-color: light-dark(#ffffff, var(--ge-dark-color, #121212)); color: light-dark(rgb(0, 0, 0), rgb(255, 255, 255));&quot;&gt;Ingredientes&lt;/span&gt;" style="edgeLabel;html=1;align=center;verticalAlign=middle;resizable=1;points=[];movable=1;rotatable=1;deletable=1;editable=1;locked=0;connectable=1;" parent="r9TCdDBaU18OwAxZgq-_-231" connectable="0" vertex="1">
          <mxGeometry x="0.0248" y="1" relative="1" as="geometry">
            <mxPoint y="62" as="offset" />
          </mxGeometry>
        </mxCell>
        <mxCell id="OjrucDtKJIPMSF6clYTV-3" value="" style="endArrow=classic;html=1;rounded=0;dashed=1;exitX=0.75;exitY=1;exitDx=0;exitDy=0;entryX=0.75;entryY=0;entryDx=0;entryDy=0;movable=1;resizable=1;rotatable=1;deletable=1;editable=1;locked=0;connectable=1;" parent="r9TCdDBaU18OwAxZgq-_-217" source="OjrucDtKJIPMSF6clYTV-1" target="OjrucDtKJIPMSF6clYTV-2" edge="1">
          <mxGeometry width="50" height="50" relative="1" as="geometry">
            <mxPoint x="1416.75" y="-81.17999999999984" as="sourcePoint" />
            <mxPoint x="1476.75" y="-81.17999999999984" as="targetPoint" />
          </mxGeometry>
        </mxCell>
        <mxCell id="cnjwJbaDlxaauoqXjU6V-12" value="Quantidade&amp;nbsp;&lt;div&gt;de ingredientes&lt;/div&gt;" style="edgeLabel;html=1;align=center;verticalAlign=middle;resizable=0;points=[];" parent="OjrucDtKJIPMSF6clYTV-3" connectable="0" vertex="1">
          <mxGeometry x="0.0052" relative="1" as="geometry">
            <mxPoint as="offset" />
          </mxGeometry>
        </mxCell>
        <mxCell id="OjrucDtKJIPMSF6clYTV-85" value="" style="ellipse;whiteSpace=wrap;html=1;aspect=fixed;fillColor=#f8cecc;strokeColor=#b85450;" parent="r9TCdDBaU18OwAxZgq-_-217" vertex="1">
          <mxGeometry x="1588" y="298.4999999999999" width="45" height="45" as="geometry" />
        </mxCell>
        <mxCell id="OjrucDtKJIPMSF6clYTV-86" value="" style="shape=message;html=1;html=1;outlineConnect=0;labelPosition=center;verticalLabelPosition=bottom;align=center;verticalAlign=top;fillColor=#f8cecc;strokeColor=#b85450;" parent="r9TCdDBaU18OwAxZgq-_-217" vertex="1">
          <mxGeometry x="1598" y="313.4999999999999" width="25" height="15" as="geometry" />
        </mxCell>
        <mxCell id="OjrucDtKJIPMSF6clYTV-88" style="edgeStyle=orthogonalEdgeStyle;rounded=0;orthogonalLoop=1;jettySize=auto;html=1;exitX=1;exitY=0.5;exitDx=0;exitDy=0;entryX=0;entryY=0.5;entryDx=0;entryDy=0;" parent="r9TCdDBaU18OwAxZgq-_-217" source="OjrucDtKJIPMSF6clYTV-89" edge="1">
          <mxGeometry relative="1" as="geometry">
            <mxPoint x="961.75" y="320.3699999999999" as="targetPoint" />
          </mxGeometry>
        </mxCell>
        <mxCell id="OjrucDtKJIPMSF6clYTV-89" value="" style="ellipse;whiteSpace=wrap;html=1;aspect=fixed;fillColor=#d5e8d4;strokeColor=#82b366;" parent="r9TCdDBaU18OwAxZgq-_-217" vertex="1">
          <mxGeometry x="853" y="297.3699999999999" width="45" height="46" as="geometry" />
        </mxCell>
        <mxCell id="OjrucDtKJIPMSF6clYTV-90" value="" style="shape=message;html=1;html=1;outlineConnect=0;labelPosition=center;verticalLabelPosition=bottom;align=center;verticalAlign=top;fillColor=#d5e8d4;strokeColor=#82b366;" parent="r9TCdDBaU18OwAxZgq-_-217" vertex="1">
          <mxGeometry x="863" y="312.3699999999999" width="25" height="16" as="geometry" />
        </mxCell>
        <mxCell id="OjrucDtKJIPMSF6clYTV-91" value="&lt;font style=&quot;font-size: 11px;&quot;&gt;Solicitação de&lt;/font&gt;&lt;div&gt;&lt;font style=&quot;font-size: 11px;&quot;&gt;atualização&lt;/font&gt;&lt;/div&gt;" style="text;html=1;align=center;verticalAlign=middle;resizable=0;points=[];autosize=1;strokeColor=none;fillColor=default;" parent="r9TCdDBaU18OwAxZgq-_-217" vertex="1">
          <mxGeometry x="961.75" y="381.5" width="90" height="40" as="geometry" />
        </mxCell>
        <mxCell id="OjrucDtKJIPMSF6clYTV-40" style="edgeStyle=orthogonalEdgeStyle;rounded=0;orthogonalLoop=1;jettySize=auto;html=1;exitX=1;exitY=0.5;exitDx=0;exitDy=0;entryX=0;entryY=0.5;entryDx=0;entryDy=0;" parent="r9TCdDBaU18OwAxZgq-_-217" source="OjrucDtKJIPMSF6clYTV-6" target="r9TCdDBaU18OwAxZgq-_-222" edge="1">
          <mxGeometry relative="1" as="geometry" />
        </mxCell>
        <mxCell id="cnjwJbaDlxaauoqXjU6V-13" value="Salvar Lista de Ingredientes" style="rounded=1;whiteSpace=wrap;html=1;" parent="r9TCdDBaU18OwAxZgq-_-217" vertex="1">
          <mxGeometry x="1387" y="290.5" width="120" height="60" as="geometry" />
        </mxCell>
        <mxCell id="cnjwJbaDlxaauoqXjU6V-14" value="" style="endArrow=classic;html=1;rounded=0;exitX=1;exitY=0.5;exitDx=0;exitDy=0;entryX=0;entryY=0.5;entryDx=0;entryDy=0;" parent="r9TCdDBaU18OwAxZgq-_-217" source="OjrucDtKJIPMSF6clYTV-2" target="cnjwJbaDlxaauoqXjU6V-13" edge="1">
          <mxGeometry width="50" height="50" relative="1" as="geometry">
            <mxPoint x="1748" y="331.5" as="sourcePoint" />
            <mxPoint x="1798" y="281.5" as="targetPoint" />
          </mxGeometry>
        </mxCell>
        <mxCell id="cnjwJbaDlxaauoqXjU6V-15" value="" style="endArrow=classic;html=1;rounded=0;exitX=1;exitY=0.5;exitDx=0;exitDy=0;entryX=0;entryY=0.5;entryDx=0;entryDy=0;" parent="r9TCdDBaU18OwAxZgq-_-217" source="cnjwJbaDlxaauoqXjU6V-13" target="OjrucDtKJIPMSF6clYTV-85" edge="1">
          <mxGeometry width="50" height="50" relative="1" as="geometry">
            <mxPoint x="1704" y="310.5" as="sourcePoint" />
            <mxPoint x="1754" y="260.5" as="targetPoint" />
          </mxGeometry>
        </mxCell>
        <mxCell id="cnjwJbaDlxaauoqXjU6V-16" value="" style="endArrow=classic;html=1;rounded=0;dashed=1;exitX=0.25;exitY=1;exitDx=0;exitDy=0;entryX=0.18;entryY=0.032;entryDx=0;entryDy=0;entryPerimeter=0;" parent="r9TCdDBaU18OwAxZgq-_-217" source="OjrucDtKJIPMSF6clYTV-6" target="cnjwJbaDlxaauoqXjU6V-13" edge="1">
          <mxGeometry width="50" height="50" relative="1" as="geometry">
            <mxPoint x="925" y="686.5" as="sourcePoint" />
            <mxPoint x="985" y="686.5" as="targetPoint" />
          </mxGeometry>
        </mxCell>
        <mxCell id="cnjwJbaDlxaauoqXjU6V-17" value="Confirmação" style="edgeLabel;html=1;align=center;verticalAlign=middle;resizable=0;points=[];" parent="cnjwJbaDlxaauoqXjU6V-16" connectable="0" vertex="1">
          <mxGeometry x="-0.6553" y="5" relative="1" as="geometry">
            <mxPoint x="-5" y="25" as="offset" />
          </mxGeometry>
        </mxCell>
        <mxCell id="cnjwJbaDlxaauoqXjU6V-18" value="" style="endArrow=classic;html=1;rounded=0;dashed=1;exitX=0.75;exitY=0;exitDx=0;exitDy=0;entryX=0.805;entryY=0.953;entryDx=0;entryDy=0;entryPerimeter=0;" parent="r9TCdDBaU18OwAxZgq-_-217" source="cnjwJbaDlxaauoqXjU6V-13" target="OjrucDtKJIPMSF6clYTV-6" edge="1">
          <mxGeometry width="50" height="50" relative="1" as="geometry">
            <mxPoint x="1421" y="78.5" as="sourcePoint" />
            <mxPoint x="1419" y="302.5" as="targetPoint" />
          </mxGeometry>
        </mxCell>
        <mxCell id="cnjwJbaDlxaauoqXjU6V-19" value="Mensagem de&lt;div&gt;&amp;nbsp;sucesso&lt;/div&gt;" style="edgeLabel;html=1;align=center;verticalAlign=middle;resizable=0;points=[];" parent="cnjwJbaDlxaauoqXjU6V-18" connectable="0" vertex="1">
          <mxGeometry x="-0.6553" y="5" relative="1" as="geometry">
            <mxPoint x="6" y="-86" as="offset" />
          </mxGeometry>
        </mxCell>
        <mxCell id="OjrucDtKJIPMSF6clYTV-62" value="" style="ellipse;whiteSpace=wrap;html=1;aspect=fixed;fillColor=#d5e8d4;strokeColor=#82b366;" parent="r9TCdDBaU18OwAxZgq-_-217" vertex="1">
          <mxGeometry x="856.75" y="520" width="45" height="46" as="geometry" />
        </mxCell>
        <mxCell id="OjrucDtKJIPMSF6clYTV-63" value="" style="shape=message;html=1;html=1;outlineConnect=0;labelPosition=center;verticalLabelPosition=bottom;align=center;verticalAlign=top;fillColor=#d5e8d4;strokeColor=#82b366;" parent="r9TCdDBaU18OwAxZgq-_-217" vertex="1">
          <mxGeometry x="866.75" y="535" width="25" height="16" as="geometry" />
        </mxCell>
        <mxCell id="sBReZjQCWEgLip0QU0mO-19" style="edgeStyle=orthogonalEdgeStyle;rounded=0;orthogonalLoop=1;jettySize=auto;html=1;entryX=0;entryY=0.479;entryDx=0;entryDy=0;entryPerimeter=0;" parent="r9TCdDBaU18OwAxZgq-_-217" source="OjrucDtKJIPMSF6clYTV-62" target="OjrucDtKJIPMSF6clYTV-34" edge="1">
          <mxGeometry relative="1" as="geometry" />
        </mxCell>
        <mxCell id="h9Z5dXRr7wYHicpKzBdA-15" style="edgeStyle=orthogonalEdgeStyle;rounded=0;orthogonalLoop=1;jettySize=auto;html=1;entryX=-0.014;entryY=0.478;entryDx=0;entryDy=0;entryPerimeter=0;" parent="r9TCdDBaU18OwAxZgq-_-217" source="h9Z5dXRr7wYHicpKzBdA-1" target="r9TCdDBaU18OwAxZgq-_-219" edge="1">
          <mxGeometry relative="1" as="geometry">
            <mxPoint x="950" y="38.375000000000455" as="targetPoint" />
          </mxGeometry>
        </mxCell>
        <mxCell id="OjrucDtKJIPMSF6clYTV-65" style="edgeStyle=orthogonalEdgeStyle;rounded=0;orthogonalLoop=1;jettySize=auto;html=1;exitX=1;exitY=0.5;exitDx=0;exitDy=0;entryX=0.25;entryY=1;entryDx=0;entryDy=0;" parent="r9TCdDBaU18OwAxZgq-_-217" source="OjrucDtKJIPMSF6clYTV-47" target="OjrucDtKJIPMSF6clYTV-1" edge="1">
          <mxGeometry relative="1" as="geometry">
            <mxPoint x="430" y="152.5" as="targetPoint" />
          </mxGeometry>
        </mxCell>
        <mxCell id="e-g3r_r-w1GOx0NY_PIq-1" value="" style="endArrow=block;html=1;rounded=0;dashed=1;exitX=0.812;exitY=0.99;exitDx=0;exitDy=0;startArrow=none;startFill=0;endFill=1;exitPerimeter=0;" parent="r9TCdDBaU18OwAxZgq-_-217" source="r9TCdDBaU18OwAxZgq-_-219" edge="1">
          <mxGeometry width="50" height="50" relative="1" as="geometry">
            <mxPoint x="1008" y="764.5" as="sourcePoint" />
            <mxPoint x="1219" y="293.5" as="targetPoint" />
            <Array as="points">
              <mxPoint x="1097" y="265.5" />
              <mxPoint x="1219" y="265.5" />
            </Array>
          </mxGeometry>
        </mxCell>
        <mxCell id="e-g3r_r-w1GOx0NY_PIq-2" value="Ingredientes&amp;nbsp;&lt;div&gt;selecionados&lt;/div&gt;" style="edgeLabel;html=1;align=center;verticalAlign=middle;resizable=0;points=[];" parent="e-g3r_r-w1GOx0NY_PIq-1" connectable="0" vertex="1">
          <mxGeometry x="-0.7532" relative="1" as="geometry">
            <mxPoint as="offset" />
          </mxGeometry>
        </mxCell>
        <mxCell id="n1cJlJ-1MoOOCQJSPrWZ-2" value="Digitar" style="rounded=1;whiteSpace=wrap;html=1;" parent="r9TCdDBaU18OwAxZgq-_-217" vertex="1">
          <mxGeometry x="590" y="84.5" width="120" height="60" as="geometry" />
        </mxCell>
        <mxCell id="h9Z5dXRr7wYHicpKzBdA-14" value="Selecionar botão de&amp;nbsp;&lt;div&gt;adição de ingredientes&lt;/div&gt;" style="edgeStyle=orthogonalEdgeStyle;rounded=0;orthogonalLoop=1;jettySize=auto;html=1;entryX=0;entryY=0.5;entryDx=0;entryDy=0;" parent="r9TCdDBaU18OwAxZgq-_-217" source="h9Z5dXRr7wYHicpKzBdA-1" target="n1cJlJ-1MoOOCQJSPrWZ-2" edge="1">
          <mxGeometry x="-0.9142" relative="1" as="geometry">
            <Array as="points">
              <mxPoint x="544" y="115" />
            </Array>
            <mxPoint as="offset" />
            <mxPoint x="579" y="133.5" as="targetPoint" />
          </mxGeometry>
        </mxCell>
        <mxCell id="r9TCdDBaU18OwAxZgq-_-224" value="Aplicativo" style="swimlane;horizontal=0;whiteSpace=wrap;html=1;movable=1;resizable=1;rotatable=1;deletable=1;editable=1;locked=0;connectable=1;fillColor=#dae8fc;strokeColor=#6c8ebf;" parent="1" vertex="1">
          <mxGeometry x="2502" y="1754" width="1798" height="201" as="geometry" />
        </mxCell>
        <mxCell id="OjrucDtKJIPMSF6clYTV-52" style="edgeStyle=orthogonalEdgeStyle;rounded=0;orthogonalLoop=1;jettySize=auto;html=1;exitX=1;exitY=0.5;exitDx=0;exitDy=0;entryX=0;entryY=0.5;entryDx=0;entryDy=0;" parent="r9TCdDBaU18OwAxZgq-_-224" source="r9TCdDBaU18OwAxZgq-_-225" target="OjrucDtKJIPMSF6clYTV-49" edge="1">
          <mxGeometry relative="1" as="geometry" />
        </mxCell>
        <mxCell id="r9TCdDBaU18OwAxZgq-_-225" value="" style="ellipse;whiteSpace=wrap;html=1;aspect=fixed;fillColor=#d5e8d4;strokeColor=#82b366;movable=1;resizable=1;rotatable=1;deletable=1;editable=1;locked=0;connectable=1;" parent="r9TCdDBaU18OwAxZgq-_-224" vertex="1">
          <mxGeometry x="55" y="77.5" width="45" height="45" as="geometry" />
        </mxCell>
        <mxCell id="r9TCdDBaU18OwAxZgq-_-226" value="" style="shape=message;html=1;html=1;outlineConnect=0;labelPosition=center;verticalLabelPosition=bottom;align=center;verticalAlign=top;fillColor=#d5e8d4;strokeColor=#82b366;movable=1;resizable=1;rotatable=1;deletable=1;editable=1;locked=0;connectable=1;" parent="r9TCdDBaU18OwAxZgq-_-224" vertex="1">
          <mxGeometry x="65" y="92.5" width="25" height="15" as="geometry" />
        </mxCell>
        <mxCell id="OjrucDtKJIPMSF6clYTV-49" value="Solicitar ingrediente" style="rounded=1;whiteSpace=wrap;html=1;" parent="r9TCdDBaU18OwAxZgq-_-224" vertex="1">
          <mxGeometry x="218" y="70" width="120" height="60" as="geometry" />
        </mxCell>
        <mxCell id="OjrucDtKJIPMSF6clYTV-78" value="Ingrediente" style="edgeLabel;html=1;align=center;verticalAlign=middle;resizable=0;points=[];" parent="r9TCdDBaU18OwAxZgq-_-224" connectable="0" vertex="1">
          <mxGeometry x="301" y="35.99843411480606" as="geometry">
            <mxPoint x="10" y="4" as="offset" />
          </mxGeometry>
        </mxCell>
        <mxCell id="OjrucDtKJIPMSF6clYTV-79" value="Código de barras" style="edgeLabel;html=1;align=center;verticalAlign=middle;resizable=1;points=[];movable=1;rotatable=1;deletable=1;editable=1;locked=0;connectable=1;" parent="r9TCdDBaU18OwAxZgq-_-224" connectable="0" vertex="1">
          <mxGeometry x="158" y="24" width="162" as="geometry" />
        </mxCell>
        <mxCell id="OjrucDtKJIPMSF6clYTV-82" value="" style="ellipse;whiteSpace=wrap;html=1;aspect=fixed;fillColor=#f8cecc;strokeColor=#b85450;" parent="r9TCdDBaU18OwAxZgq-_-224" vertex="1">
          <mxGeometry x="408" y="77.5" width="45" height="45" as="geometry" />
        </mxCell>
        <mxCell id="OjrucDtKJIPMSF6clYTV-83" value="" style="shape=message;html=1;html=1;outlineConnect=0;labelPosition=center;verticalLabelPosition=bottom;align=center;verticalAlign=top;fillColor=#f8cecc;strokeColor=#b85450;" parent="r9TCdDBaU18OwAxZgq-_-224" vertex="1">
          <mxGeometry x="418" y="92.5" width="25" height="15" as="geometry" />
        </mxCell>
        <mxCell id="OjrucDtKJIPMSF6clYTV-84" value="" style="endArrow=classic;html=1;rounded=0;exitX=1;exitY=0.5;exitDx=0;exitDy=0;entryX=0;entryY=0.5;entryDx=0;entryDy=0;" parent="r9TCdDBaU18OwAxZgq-_-224" target="OjrucDtKJIPMSF6clYTV-82" edge="1">
          <mxGeometry width="50" height="50" relative="1" as="geometry">
            <mxPoint x="338" y="99.63000000000011" as="sourcePoint" />
            <mxPoint x="390.5" y="250" as="targetPoint" />
          </mxGeometry>
        </mxCell>
        <mxCell id="h9Z5dXRr7wYHicpKzBdA-7" value="Criar ingrediente" style="rounded=1;whiteSpace=wrap;html=1;" parent="r9TCdDBaU18OwAxZgq-_-224" vertex="1">
          <mxGeometry x="669" y="78" width="127" height="60" as="geometry" />
        </mxCell>
        <mxCell id="IzDibwyKdirQ0t0AhbdQ-20" value="Ingrediente" style="text;html=1;align=center;verticalAlign=middle;resizable=0;points=[];autosize=1;strokeColor=none;fillColor=none;" parent="r9TCdDBaU18OwAxZgq-_-224" vertex="1">
          <mxGeometry x="643" y="5" width="80" height="30" as="geometry" />
        </mxCell>
        <mxCell id="Urh4bGl8QVrhK2T0n1_F-2" value="" style="ellipse;whiteSpace=wrap;html=1;aspect=fixed;fillColor=#d5e8d4;strokeColor=#82b366;" parent="1" vertex="1">
          <mxGeometry x="1704" y="590" width="45" height="45" as="geometry" />
        </mxCell>
        <mxCell id="Urh4bGl8QVrhK2T0n1_F-3" value="" style="shape=message;html=1;html=1;outlineConnect=0;labelPosition=center;verticalLabelPosition=bottom;align=center;verticalAlign=top;fillColor=#d5e8d4;strokeColor=#82b366;" parent="1" vertex="1">
          <mxGeometry x="1714" y="605" width="25" height="15" as="geometry" />
        </mxCell>
        <mxCell id="Urh4bGl8QVrhK2T0n1_F-4" value="" style="ellipse;whiteSpace=wrap;html=1;aspect=fixed;fillColor=#f8cecc;strokeColor=#b85450;" parent="1" vertex="1">
          <mxGeometry x="1784" y="590" width="45" height="45" as="geometry" />
        </mxCell>
        <mxCell id="Urh4bGl8QVrhK2T0n1_F-5" value="" style="shape=message;html=1;html=1;outlineConnect=0;labelPosition=center;verticalLabelPosition=bottom;align=center;verticalAlign=top;fillColor=#f8cecc;strokeColor=#b85450;" parent="1" vertex="1">
          <mxGeometry x="1794" y="605" width="25" height="15" as="geometry" />
        </mxCell>
        <mxCell id="Urh4bGl8QVrhK2T0n1_F-6" value="" style="ellipse;whiteSpace=wrap;html=1;aspect=fixed;fillColor=#d5e8d4;strokeColor=#82b366;" parent="1" vertex="1">
          <mxGeometry x="1654" y="590" width="45" height="45" as="geometry" />
        </mxCell>
        <mxCell id="Urh4bGl8QVrhK2T0n1_F-7" value="" style="ellipse;whiteSpace=wrap;html=1;aspect=fixed;fillColor=#f8cecc;strokeColor=#b85450;" parent="1" vertex="1">
          <mxGeometry x="1834" y="590" width="45" height="45" as="geometry" />
        </mxCell>
        <mxCell id="Urh4bGl8QVrhK2T0n1_F-8" value="" style="endArrow=classic;html=1;rounded=0;" parent="1" edge="1">
          <mxGeometry width="50" height="50" relative="1" as="geometry">
            <mxPoint x="1924" y="612" as="sourcePoint" />
            <mxPoint x="1984" y="612" as="targetPoint" />
          </mxGeometry>
        </mxCell>
        <mxCell id="Urh4bGl8QVrhK2T0n1_F-9" value="" style="endArrow=classic;html=1;rounded=0;dashed=1;" parent="1" edge="1">
          <mxGeometry width="50" height="50" relative="1" as="geometry">
            <mxPoint x="1924" y="622" as="sourcePoint" />
            <mxPoint x="1984" y="622" as="targetPoint" />
          </mxGeometry>
        </mxCell>
        <mxCell id="EVhrGPU_e1KG_v5FzEUT-1" value="API" style="shape=umlActor;verticalLabelPosition=bottom;verticalAlign=top;html=1;outlineConnect=0;" parent="1" vertex="1">
          <mxGeometry x="6350" y="1110" width="60" height="120" as="geometry" />
        </mxCell>
        <mxCell id="EVhrGPU_e1KG_v5FzEUT-2" value="Usuário" style="shape=umlActor;verticalLabelPosition=bottom;verticalAlign=top;html=1;outlineConnect=0;" parent="1" vertex="1">
          <mxGeometry x="5480" y="1110" width="60" height="120" as="geometry" />
        </mxCell>
        <mxCell id="Urh4bGl8QVrhK2T0n1_F-25" value="" style="ellipse;whiteSpace=wrap;html=1;aspect=fixed;fillColor=#d5e8d4;strokeColor=#82b366;" parent="1" vertex="1">
          <mxGeometry x="2360" y="2280" width="45" height="45" as="geometry" />
        </mxCell>
        <mxCell id="Urh4bGl8QVrhK2T0n1_F-26" value="" style="shape=message;html=1;html=1;outlineConnect=0;labelPosition=center;verticalLabelPosition=bottom;align=center;verticalAlign=top;fillColor=#d5e8d4;strokeColor=#82b366;" parent="1" vertex="1">
          <mxGeometry x="2370" y="2295" width="25" height="15" as="geometry" />
        </mxCell>
        <mxCell id="Urh4bGl8QVrhK2T0n1_F-27" value="" style="ellipse;whiteSpace=wrap;html=1;aspect=fixed;fillColor=#f8cecc;strokeColor=#b85450;" parent="1" vertex="1">
          <mxGeometry x="2440" y="2280" width="45" height="45" as="geometry" />
        </mxCell>
        <mxCell id="Urh4bGl8QVrhK2T0n1_F-28" value="" style="shape=message;html=1;html=1;outlineConnect=0;labelPosition=center;verticalLabelPosition=bottom;align=center;verticalAlign=top;fillColor=#f8cecc;strokeColor=#b85450;" parent="1" vertex="1">
          <mxGeometry x="2450" y="2295" width="25" height="15" as="geometry" />
        </mxCell>
        <mxCell id="Urh4bGl8QVrhK2T0n1_F-29" value="" style="ellipse;whiteSpace=wrap;html=1;aspect=fixed;fillColor=#d5e8d4;strokeColor=#82b366;" parent="1" vertex="1">
          <mxGeometry x="2310" y="2280" width="45" height="45" as="geometry" />
        </mxCell>
        <mxCell id="Urh4bGl8QVrhK2T0n1_F-30" value="" style="ellipse;whiteSpace=wrap;html=1;aspect=fixed;fillColor=#f8cecc;strokeColor=#b85450;" parent="1" vertex="1">
          <mxGeometry x="2490" y="2280" width="45" height="45" as="geometry" />
        </mxCell>
        <mxCell id="Urh4bGl8QVrhK2T0n1_F-31" value="" style="endArrow=classic;html=1;rounded=0;" parent="1" edge="1">
          <mxGeometry width="50" height="50" relative="1" as="geometry">
            <mxPoint x="2580" y="2302" as="sourcePoint" />
            <mxPoint x="2640" y="2302" as="targetPoint" />
          </mxGeometry>
        </mxCell>
        <mxCell id="Urh4bGl8QVrhK2T0n1_F-32" value="" style="endArrow=classic;html=1;rounded=0;dashed=1;" parent="1" edge="1">
          <mxGeometry width="50" height="50" relative="1" as="geometry">
            <mxPoint x="2580" y="2312" as="sourcePoint" />
            <mxPoint x="2640" y="2312" as="targetPoint" />
          </mxGeometry>
        </mxCell>
        <mxCell id="Urh4bGl8QVrhK2T0n1_F-33" value="Obter ingredientes" style="rounded=1;whiteSpace=wrap;html=1;" parent="1" vertex="1">
          <mxGeometry x="2660" y="2320" width="120" height="60" as="geometry" />
        </mxCell>
        <mxCell id="EVhrGPU_e1KG_v5FzEUT-3" value="CozinhAI" style="swimlane;whiteSpace=wrap;html=1;" parent="1" vertex="1">
          <mxGeometry x="5730" y="940" width="430" height="431" as="geometry" />
        </mxCell>
        <mxCell id="EVhrGPU_e1KG_v5FzEUT-4" value="UC01 - Registrar Ingredientes" style="ellipse;whiteSpace=wrap;html=1;" parent="EVhrGPU_e1KG_v5FzEUT-3" vertex="1">
          <mxGeometry x="150" y="51" width="130" height="80" as="geometry" />
        </mxCell>
        <mxCell id="EVhrGPU_e1KG_v5FzEUT-5" value="UC02 - Procurar Receitas" style="ellipse;whiteSpace=wrap;html=1;" parent="EVhrGPU_e1KG_v5FzEUT-3" vertex="1">
          <mxGeometry x="150" y="183.5" width="130" height="80" as="geometry" />
        </mxCell>
        <mxCell id="EVhrGPU_e1KG_v5FzEUT-6" value="UC03 - Criar lista de compras" style="ellipse;whiteSpace=wrap;html=1;" parent="EVhrGPU_e1KG_v5FzEUT-3" vertex="1">
          <mxGeometry x="150" y="331" width="130" height="80" as="geometry" />
        </mxCell>
        <mxCell id="EVhrGPU_e1KG_v5FzEUT-8" value="" style="endArrow=classic;html=1;rounded=0;exitX=0.5;exitY=0.5;exitDx=0;exitDy=0;exitPerimeter=0;entryX=0;entryY=0.5;entryDx=0;entryDy=0;" parent="1" source="EVhrGPU_e1KG_v5FzEUT-2" target="EVhrGPU_e1KG_v5FzEUT-4" edge="1">
          <mxGeometry width="50" height="50" relative="1" as="geometry">
            <mxPoint x="5850" y="1210" as="sourcePoint" />
            <mxPoint x="5900" y="1160" as="targetPoint" />
          </mxGeometry>
        </mxCell>
        <mxCell id="EVhrGPU_e1KG_v5FzEUT-9" value="" style="endArrow=classic;html=1;rounded=0;exitX=0.5;exitY=0.5;exitDx=0;exitDy=0;exitPerimeter=0;entryX=0;entryY=0.5;entryDx=0;entryDy=0;" parent="1" source="EVhrGPU_e1KG_v5FzEUT-2" target="EVhrGPU_e1KG_v5FzEUT-5" edge="1">
          <mxGeometry width="50" height="50" relative="1" as="geometry">
            <mxPoint x="5430" y="1170" as="sourcePoint" />
            <mxPoint x="5850" y="980" as="targetPoint" />
          </mxGeometry>
        </mxCell>
        <mxCell id="EVhrGPU_e1KG_v5FzEUT-10" value="" style="endArrow=classic;html=1;rounded=0;exitX=0.5;exitY=0.5;exitDx=0;exitDy=0;exitPerimeter=0;entryX=0;entryY=0.5;entryDx=0;entryDy=0;" parent="1" source="EVhrGPU_e1KG_v5FzEUT-2" target="EVhrGPU_e1KG_v5FzEUT-6" edge="1">
          <mxGeometry width="50" height="50" relative="1" as="geometry">
            <mxPoint x="5440" y="1180" as="sourcePoint" />
            <mxPoint x="5860" y="990" as="targetPoint" />
          </mxGeometry>
        </mxCell>
        <mxCell id="EVhrGPU_e1KG_v5FzEUT-11" value="" style="endArrow=classic;html=1;rounded=0;exitX=0.5;exitY=0.5;exitDx=0;exitDy=0;exitPerimeter=0;entryX=1;entryY=0.5;entryDx=0;entryDy=0;" parent="1" source="EVhrGPU_e1KG_v5FzEUT-1" target="EVhrGPU_e1KG_v5FzEUT-4" edge="1">
          <mxGeometry width="50" height="50" relative="1" as="geometry">
            <mxPoint x="5970" y="1210" as="sourcePoint" />
            <mxPoint x="6020" y="1160" as="targetPoint" />
          </mxGeometry>
        </mxCell>
        <mxCell id="EVhrGPU_e1KG_v5FzEUT-12" value="" style="endArrow=classic;html=1;rounded=0;exitX=0.5;exitY=0.5;exitDx=0;exitDy=0;exitPerimeter=0;entryX=1;entryY=0.5;entryDx=0;entryDy=0;" parent="1" source="EVhrGPU_e1KG_v5FzEUT-1" target="EVhrGPU_e1KG_v5FzEUT-5" edge="1">
          <mxGeometry width="50" height="50" relative="1" as="geometry">
            <mxPoint x="6400" y="1180" as="sourcePoint" />
            <mxPoint x="5980" y="980" as="targetPoint" />
          </mxGeometry>
        </mxCell>
        <mxCell id="EVhrGPU_e1KG_v5FzEUT-13" value="" style="endArrow=classic;html=1;rounded=0;exitX=0.5;exitY=0.5;exitDx=0;exitDy=0;exitPerimeter=0;entryX=1;entryY=0.5;entryDx=0;entryDy=0;" parent="1" source="EVhrGPU_e1KG_v5FzEUT-1" target="EVhrGPU_e1KG_v5FzEUT-6" edge="1">
          <mxGeometry width="50" height="50" relative="1" as="geometry">
            <mxPoint x="6410" y="1190" as="sourcePoint" />
            <mxPoint x="5990" y="990" as="targetPoint" />
          </mxGeometry>
        </mxCell>
        <mxCell id="OjrucDtKJIPMSF6clYTV-8" value="API" style="swimlane;horizontal=0;whiteSpace=wrap;html=1;fillColor=#dae8fc;strokeColor=#6c8ebf;" parent="1" vertex="1">
          <mxGeometry x="2500" y="1970" width="1797" height="209" as="geometry" />
        </mxCell>
        <mxCell id="OjrucDtKJIPMSF6clYTV-57" style="edgeStyle=orthogonalEdgeStyle;rounded=0;orthogonalLoop=1;jettySize=auto;html=1;exitX=1;exitY=0.5;exitDx=0;exitDy=0;entryX=0;entryY=0.5;entryDx=0;entryDy=0;" parent="OjrucDtKJIPMSF6clYTV-8" source="OjrucDtKJIPMSF6clYTV-30" target="Urh4bGl8QVrhK2T0n1_F-22" edge="1">
          <mxGeometry relative="1" as="geometry" />
        </mxCell>
        <mxCell id="OjrucDtKJIPMSF6clYTV-30" value="" style="ellipse;whiteSpace=wrap;html=1;aspect=fixed;fillColor=#d5e8d4;strokeColor=#82b366;" parent="OjrucDtKJIPMSF6clYTV-8" vertex="1">
          <mxGeometry x="62.5" y="82" width="45" height="45" as="geometry" />
        </mxCell>
        <mxCell id="OjrucDtKJIPMSF6clYTV-31" value="" style="shape=message;html=1;html=1;outlineConnect=0;labelPosition=center;verticalLabelPosition=bottom;align=center;verticalAlign=top;fillColor=#d5e8d4;strokeColor=#82b366;" parent="OjrucDtKJIPMSF6clYTV-8" vertex="1">
          <mxGeometry x="72.5" y="97" width="25" height="15" as="geometry" />
        </mxCell>
        <mxCell id="Urh4bGl8QVrhK2T0n1_F-22" value="Converter código de barras em ingrediente" style="rounded=1;whiteSpace=wrap;html=1;" parent="OjrucDtKJIPMSF6clYTV-8" vertex="1">
          <mxGeometry x="220" y="74.5" width="120" height="60" as="geometry" />
        </mxCell>
        <mxCell id="OjrucDtKJIPMSF6clYTV-58" value="" style="ellipse;whiteSpace=wrap;html=1;aspect=fixed;fillColor=#f8cecc;strokeColor=#b85450;" parent="OjrucDtKJIPMSF6clYTV-8" vertex="1">
          <mxGeometry x="410" y="82" width="45" height="45" as="geometry" />
        </mxCell>
        <mxCell id="OjrucDtKJIPMSF6clYTV-59" value="" style="shape=message;html=1;html=1;outlineConnect=0;labelPosition=center;verticalLabelPosition=bottom;align=center;verticalAlign=top;fillColor=#f8cecc;strokeColor=#b85450;" parent="OjrucDtKJIPMSF6clYTV-8" vertex="1">
          <mxGeometry x="420" y="97" width="25" height="15" as="geometry" />
        </mxCell>
        <mxCell id="OjrucDtKJIPMSF6clYTV-60" value="" style="endArrow=classic;html=1;rounded=0;exitX=1;exitY=0.5;exitDx=0;exitDy=0;entryX=0;entryY=0.5;entryDx=0;entryDy=0;" parent="OjrucDtKJIPMSF6clYTV-8" target="OjrucDtKJIPMSF6clYTV-58" edge="1">
          <mxGeometry width="50" height="50" relative="1" as="geometry">
            <mxPoint x="340" y="104.13000000000011" as="sourcePoint" />
            <mxPoint x="392.5" y="254.5" as="targetPoint" />
          </mxGeometry>
        </mxCell>
        <mxCell id="cnjwJbaDlxaauoqXjU6V-5" value="Código de barras" style="edgeLabel;html=1;align=center;verticalAlign=middle;resizable=1;points=[];movable=1;rotatable=1;deletable=1;editable=1;locked=0;connectable=1;" parent="OjrucDtKJIPMSF6clYTV-8" connectable="0" vertex="1">
          <mxGeometry x="169" y="36" width="162" as="geometry" />
        </mxCell>
        <mxCell id="OjrucDtKJIPMSF6clYTV-54" style="edgeStyle=orthogonalEdgeStyle;rounded=0;orthogonalLoop=1;jettySize=auto;html=1;exitX=0.25;exitY=1;exitDx=0;exitDy=0;entryX=0.25;entryY=0;entryDx=0;entryDy=0;dashed=1;" parent="1" source="OjrucDtKJIPMSF6clYTV-49" edge="1">
          <mxGeometry relative="1" as="geometry">
            <mxPoint x="2750" y="2045" as="targetPoint" />
          </mxGeometry>
        </mxCell>
        <mxCell id="OjrucDtKJIPMSF6clYTV-55" style="edgeStyle=orthogonalEdgeStyle;rounded=0;orthogonalLoop=1;jettySize=auto;html=1;exitX=0.75;exitY=0;exitDx=0;exitDy=0;entryX=0.75;entryY=1;entryDx=0;entryDy=0;dashed=1;" parent="1" target="OjrucDtKJIPMSF6clYTV-49" edge="1">
          <mxGeometry relative="1" as="geometry">
            <mxPoint x="2810" y="2045" as="sourcePoint" />
          </mxGeometry>
        </mxCell>
        <mxCell id="OjrucDtKJIPMSF6clYTV-56" value="&lt;div&gt;Ingrediente&lt;/div&gt;" style="edgeLabel;html=1;align=center;verticalAlign=middle;resizable=0;points=[];" parent="OjrucDtKJIPMSF6clYTV-55" connectable="0" vertex="1">
          <mxGeometry x="0.1018" y="-1" relative="1" as="geometry">
            <mxPoint x="5" y="64" as="offset" />
          </mxGeometry>
        </mxCell>
        <mxCell id="sOQ2hLrvt8IYlmTNQ9GE-1" value="" style="ellipse;whiteSpace=wrap;html=1;aspect=fixed;fillColor=#d5e8d4;strokeColor=#82b366;" parent="1" vertex="1">
          <mxGeometry x="-20" y="1405.5" width="45" height="45" as="geometry" />
        </mxCell>
        <mxCell id="sOQ2hLrvt8IYlmTNQ9GE-2" value="" style="shape=message;html=1;html=1;outlineConnect=0;labelPosition=center;verticalLabelPosition=bottom;align=center;verticalAlign=top;fillColor=#d5e8d4;strokeColor=#82b366;" parent="1" vertex="1">
          <mxGeometry x="-10" y="1420.5" width="25" height="15" as="geometry" />
        </mxCell>
        <mxCell id="sOQ2hLrvt8IYlmTNQ9GE-3" value="" style="ellipse;whiteSpace=wrap;html=1;aspect=fixed;fillColor=#f8cecc;strokeColor=#b85450;" parent="1" vertex="1">
          <mxGeometry x="60" y="1405.5" width="45" height="45" as="geometry" />
        </mxCell>
        <mxCell id="sOQ2hLrvt8IYlmTNQ9GE-4" value="" style="shape=message;html=1;html=1;outlineConnect=0;labelPosition=center;verticalLabelPosition=bottom;align=center;verticalAlign=top;fillColor=#f8cecc;strokeColor=#b85450;" parent="1" vertex="1">
          <mxGeometry x="70" y="1420.5" width="25" height="15" as="geometry" />
        </mxCell>
        <mxCell id="sOQ2hLrvt8IYlmTNQ9GE-5" value="" style="ellipse;whiteSpace=wrap;html=1;aspect=fixed;fillColor=#d5e8d4;strokeColor=#82b366;" parent="1" vertex="1">
          <mxGeometry x="-70" y="1405.5" width="45" height="45" as="geometry" />
        </mxCell>
        <mxCell id="sOQ2hLrvt8IYlmTNQ9GE-6" value="" style="ellipse;whiteSpace=wrap;html=1;aspect=fixed;fillColor=#f8cecc;strokeColor=#b85450;" parent="1" vertex="1">
          <mxGeometry x="110" y="1405.5" width="45" height="45" as="geometry" />
        </mxCell>
        <mxCell id="sOQ2hLrvt8IYlmTNQ9GE-7" value="" style="endArrow=classic;html=1;rounded=0;" parent="1" edge="1">
          <mxGeometry width="50" height="50" relative="1" as="geometry">
            <mxPoint x="200" y="1427.5" as="sourcePoint" />
            <mxPoint x="260" y="1427.5" as="targetPoint" />
          </mxGeometry>
        </mxCell>
        <mxCell id="sOQ2hLrvt8IYlmTNQ9GE-8" value="" style="endArrow=classic;html=1;rounded=0;dashed=1;" parent="1" edge="1">
          <mxGeometry width="50" height="50" relative="1" as="geometry">
            <mxPoint x="200" y="1437.5" as="sourcePoint" />
            <mxPoint x="260" y="1437.5" as="targetPoint" />
          </mxGeometry>
        </mxCell>
        <mxCell id="fRR_I6OSnF6bhWmkqqXn-57" value="Usuário" style="swimlane;horizontal=0;whiteSpace=wrap;html=1;fillColor=#dae8fc;strokeColor=#6c8ebf;" parent="1" vertex="1">
          <mxGeometry x="2510" y="603" width="1528" height="327" as="geometry" />
        </mxCell>
        <mxCell id="fRR_I6OSnF6bhWmkqqXn-58" value="" style="ellipse;whiteSpace=wrap;html=1;aspect=fixed;fillColor=#d5e8d4;strokeColor=#82b366;movable=1;resizable=1;rotatable=1;deletable=1;editable=1;locked=0;connectable=1;" parent="fRR_I6OSnF6bhWmkqqXn-57" vertex="1">
          <mxGeometry x="44" y="145.75" width="45" height="45" as="geometry" />
        </mxCell>
        <mxCell id="IzDibwyKdirQ0t0AhbdQ-13" value="" style="endArrow=classic;html=1;rounded=0;entryX=0;entryY=0.5;entryDx=0;entryDy=0;movable=1;resizable=1;rotatable=1;deletable=1;editable=1;locked=0;connectable=1;" parent="fRR_I6OSnF6bhWmkqqXn-57" source="fRR_I6OSnF6bhWmkqqXn-58" target="n1cJlJ-1MoOOCQJSPrWZ-17" edge="1">
          <mxGeometry width="50" height="50" relative="1" as="geometry">
            <mxPoint x="-45" y="167.75" as="sourcePoint" />
            <mxPoint x="135" y="168" as="targetPoint" />
          </mxGeometry>
        </mxCell>
        <mxCell id="n1cJlJ-1MoOOCQJSPrWZ-17" value="Visualizar Lista" style="rounded=1;whiteSpace=wrap;html=1;movable=1;resizable=1;rotatable=1;deletable=1;editable=1;locked=0;connectable=1;" parent="fRR_I6OSnF6bhWmkqqXn-57" vertex="1">
          <mxGeometry x="163" y="138" width="120" height="60" as="geometry" />
        </mxCell>
        <mxCell id="fRR_I6OSnF6bhWmkqqXn-74" value="Aplicativo" style="swimlane;horizontal=0;whiteSpace=wrap;html=1;fillColor=#dae8fc;strokeColor=#6c8ebf;" parent="1" vertex="1">
          <mxGeometry x="2510" y="940" width="1957" height="206" as="geometry" />
        </mxCell>
        <mxCell id="n1cJlJ-1MoOOCQJSPrWZ-11" style="edgeStyle=orthogonalEdgeStyle;rounded=0;orthogonalLoop=1;jettySize=auto;html=1;exitX=0.5;exitY=0;exitDx=0;exitDy=0;exitPerimeter=0;entryX=0;entryY=0.5;entryDx=0;entryDy=0;" parent="fRR_I6OSnF6bhWmkqqXn-74" edge="1">
          <mxGeometry relative="1" as="geometry">
            <mxPoint x="638" y="-195" as="sourcePoint" />
            <mxPoint x="1023" y="-301" as="targetPoint" />
          </mxGeometry>
        </mxCell>
        <mxCell id="fRR_I6OSnF6bhWmkqqXn-104" value="Confirmar" style="rounded=1;whiteSpace=wrap;html=1;movable=1;resizable=1;rotatable=1;deletable=1;editable=1;locked=0;connectable=1;" parent="fRR_I6OSnF6bhWmkqqXn-74" vertex="1">
          <mxGeometry x="1349" y="-149.0000000000001" width="120" height="60" as="geometry" />
        </mxCell>
        <mxCell id="fRR_I6OSnF6bhWmkqqXn-62" value="Selecionar ingredientes" style="rounded=1;whiteSpace=wrap;html=1;movable=1;resizable=1;rotatable=1;deletable=1;editable=1;locked=0;connectable=1;" parent="fRR_I6OSnF6bhWmkqqXn-74" vertex="1">
          <mxGeometry x="826" y="-283" width="120" height="60" as="geometry" />
        </mxCell>
        <mxCell id="n1cJlJ-1MoOOCQJSPrWZ-8" value="Não" style="text;html=1;align=center;verticalAlign=middle;resizable=0;points=[];autosize=1;strokeColor=none;fillColor=none;" parent="fRR_I6OSnF6bhWmkqqXn-74" vertex="1">
          <mxGeometry x="634" y="-222" width="40" height="26" as="geometry" />
        </mxCell>
        <mxCell id="n1cJlJ-1MoOOCQJSPrWZ-9" value="Adicionar" style="text;html=1;align=center;verticalAlign=middle;resizable=0;points=[];autosize=1;strokeColor=none;fillColor=none;" parent="fRR_I6OSnF6bhWmkqqXn-74" vertex="1">
          <mxGeometry x="707" y="-221" width="68" height="26" as="geometry" />
        </mxCell>
        <mxCell id="n1cJlJ-1MoOOCQJSPrWZ-10" value="Remover" style="text;html=1;align=center;verticalAlign=middle;resizable=0;points=[];autosize=1;strokeColor=none;fillColor=none;" parent="fRR_I6OSnF6bhWmkqqXn-74" vertex="1">
          <mxGeometry x="710" y="-134" width="67" height="26" as="geometry" />
        </mxCell>
        <mxCell id="n1cJlJ-1MoOOCQJSPrWZ-16" style="edgeStyle=orthogonalEdgeStyle;rounded=0;orthogonalLoop=1;jettySize=auto;html=1;exitX=0.5;exitY=1;exitDx=0;exitDy=0;exitPerimeter=0;entryX=0.5;entryY=0;entryDx=0;entryDy=0;" parent="fRR_I6OSnF6bhWmkqqXn-74" source="IzDibwyKdirQ0t0AhbdQ-8" target="n1cJlJ-1MoOOCQJSPrWZ-15" edge="1">
          <mxGeometry relative="1" as="geometry" />
        </mxCell>
        <mxCell id="IzDibwyKdirQ0t0AhbdQ-8" value="" style="strokeWidth=2;html=1;shape=mxgraph.flowchart.decision;whiteSpace=wrap;fillColor=#fff2cc;strokeColor=#d6b656;movable=1;resizable=1;rotatable=1;deletable=1;editable=1;locked=0;connectable=1;" parent="fRR_I6OSnF6bhWmkqqXn-74" vertex="1">
          <mxGeometry x="742" y="-194.75" width="60" height="59.75" as="geometry" />
        </mxCell>
        <mxCell id="n1cJlJ-1MoOOCQJSPrWZ-12" style="edgeStyle=orthogonalEdgeStyle;rounded=0;orthogonalLoop=1;jettySize=auto;html=1;exitX=0.5;exitY=0;exitDx=0;exitDy=0;exitPerimeter=0;entryX=0;entryY=0.5;entryDx=0;entryDy=0;" parent="fRR_I6OSnF6bhWmkqqXn-74" source="IzDibwyKdirQ0t0AhbdQ-8" target="fRR_I6OSnF6bhWmkqqXn-62" edge="1">
          <mxGeometry relative="1" as="geometry" />
        </mxCell>
        <mxCell id="IzDibwyKdirQ0t0AhbdQ-10" value="" style="endArrow=classic;html=1;rounded=0;entryX=0;entryY=0.5;entryDx=0;entryDy=0;movable=1;resizable=1;rotatable=1;deletable=1;editable=1;locked=0;connectable=1;" parent="fRR_I6OSnF6bhWmkqqXn-74" edge="1">
          <mxGeometry width="50" height="50" relative="1" as="geometry">
            <mxPoint x="668" y="-165.01577669902917" as="sourcePoint" />
            <mxPoint x="741" y="-164.75" as="targetPoint" />
          </mxGeometry>
        </mxCell>
        <mxCell id="n1cJlJ-1MoOOCQJSPrWZ-13" value="" style="edgeStyle=orthogonalEdgeStyle;rounded=0;orthogonalLoop=1;jettySize=auto;html=1;" parent="fRR_I6OSnF6bhWmkqqXn-74" target="IzDibwyKdirQ0t0AhbdQ-8" edge="1">
          <mxGeometry relative="1" as="geometry">
            <mxPoint x="668" y="-165" as="sourcePoint" />
          </mxGeometry>
        </mxCell>
        <mxCell id="n1cJlJ-1MoOOCQJSPrWZ-14" value="Sim" style="edgeLabel;html=1;align=center;verticalAlign=middle;resizable=0;points=[];" parent="n1cJlJ-1MoOOCQJSPrWZ-13" connectable="0" vertex="1">
          <mxGeometry x="-0.7176" y="11" relative="1" as="geometry">
            <mxPoint x="1" as="offset" />
          </mxGeometry>
        </mxCell>
        <mxCell id="n1cJlJ-1MoOOCQJSPrWZ-15" value="Selecionar ingredientes" style="rounded=1;whiteSpace=wrap;html=1;movable=1;resizable=1;rotatable=1;deletable=1;editable=1;locked=0;connectable=1;" parent="fRR_I6OSnF6bhWmkqqXn-74" vertex="1">
          <mxGeometry x="712" y="-90" width="120" height="60" as="geometry" />
        </mxCell>
        <mxCell id="fRR_I6OSnF6bhWmkqqXn-78" style="edgeStyle=orthogonalEdgeStyle;rounded=0;orthogonalLoop=1;jettySize=auto;html=1;entryX=0;entryY=0.5;entryDx=0;entryDy=0;movable=1;resizable=1;rotatable=1;deletable=1;editable=1;locked=0;connectable=1;" parent="fRR_I6OSnF6bhWmkqqXn-74" source="fRR_I6OSnF6bhWmkqqXn-79" target="fRR_I6OSnF6bhWmkqqXn-80" edge="1">
          <mxGeometry relative="1" as="geometry" />
        </mxCell>
        <mxCell id="fRR_I6OSnF6bhWmkqqXn-77" value="" style="endArrow=classic;html=1;rounded=0;exitX=1;exitY=0.5;exitDx=0;exitDy=0;entryX=0;entryY=0.5;entryDx=0;entryDy=0;movable=1;resizable=1;rotatable=1;deletable=1;editable=1;locked=0;connectable=1;" parent="fRR_I6OSnF6bhWmkqqXn-74" source="fRR_I6OSnF6bhWmkqqXn-75" target="fRR_I6OSnF6bhWmkqqXn-79" edge="1">
          <mxGeometry width="50" height="50" relative="1" as="geometry">
            <mxPoint x="753" y="97.5" as="sourcePoint" />
            <mxPoint x="813" y="97.5" as="targetPoint" />
          </mxGeometry>
        </mxCell>
        <mxCell id="fRR_I6OSnF6bhWmkqqXn-79" value="Solicitar ingrediente" style="rounded=1;whiteSpace=wrap;html=1;movable=1;resizable=1;rotatable=1;deletable=1;editable=1;locked=0;connectable=1;" parent="fRR_I6OSnF6bhWmkqqXn-74" vertex="1">
          <mxGeometry x="764" y="68" width="160" height="60" as="geometry" />
        </mxCell>
        <mxCell id="fRR_I6OSnF6bhWmkqqXn-80" value="Adicionar ingrediente" style="rounded=1;whiteSpace=wrap;html=1;movable=1;resizable=1;rotatable=1;deletable=1;editable=1;locked=0;connectable=1;" parent="fRR_I6OSnF6bhWmkqqXn-74" vertex="1">
          <mxGeometry x="946.5" y="68" width="130" height="60" as="geometry" />
        </mxCell>
        <mxCell id="fRR_I6OSnF6bhWmkqqXn-81" value="Definir quantidade mínima" style="rounded=1;whiteSpace=wrap;html=1;movable=1;resizable=1;rotatable=1;deletable=1;editable=1;locked=0;connectable=1;" parent="fRR_I6OSnF6bhWmkqqXn-74" vertex="1">
          <mxGeometry x="1118" y="68" width="130" height="60" as="geometry" />
        </mxCell>
        <mxCell id="fRR_I6OSnF6bhWmkqqXn-82" value="" style="endArrow=classic;html=1;rounded=0;exitX=1;exitY=0.5;exitDx=0;exitDy=0;entryX=0;entryY=0.5;entryDx=0;entryDy=0;movable=1;resizable=1;rotatable=1;deletable=1;editable=1;locked=0;connectable=1;" parent="fRR_I6OSnF6bhWmkqqXn-74" source="fRR_I6OSnF6bhWmkqqXn-80" target="fRR_I6OSnF6bhWmkqqXn-81" edge="1">
          <mxGeometry width="50" height="50" relative="1" as="geometry">
            <mxPoint x="1134" y="74.75" as="sourcePoint" />
            <mxPoint x="1184" y="24.75" as="targetPoint" />
          </mxGeometry>
        </mxCell>
        <mxCell id="fRR_I6OSnF6bhWmkqqXn-86" value="" style="ellipse;whiteSpace=wrap;html=1;aspect=fixed;fillColor=#f8cecc;strokeColor=#b85450;movable=1;resizable=1;rotatable=1;deletable=1;editable=1;locked=0;connectable=1;" parent="fRR_I6OSnF6bhWmkqqXn-74" vertex="1">
          <mxGeometry x="1902" y="73" width="50" height="50" as="geometry" />
        </mxCell>
        <mxCell id="fRR_I6OSnF6bhWmkqqXn-87" style="edgeStyle=orthogonalEdgeStyle;rounded=0;orthogonalLoop=1;jettySize=auto;html=1;entryX=0;entryY=0.5;entryDx=0;entryDy=0;movable=1;resizable=1;rotatable=1;deletable=1;editable=1;locked=0;connectable=1;" parent="fRR_I6OSnF6bhWmkqqXn-74" source="fRR_I6OSnF6bhWmkqqXn-88" target="fRR_I6OSnF6bhWmkqqXn-86" edge="1">
          <mxGeometry relative="1" as="geometry" />
        </mxCell>
        <mxCell id="fRR_I6OSnF6bhWmkqqXn-88" value="Atualizar ingredientes disponíveis" style="rounded=1;whiteSpace=wrap;html=1;movable=1;resizable=1;rotatable=1;deletable=1;editable=1;locked=0;connectable=1;" parent="fRR_I6OSnF6bhWmkqqXn-74" vertex="1">
          <mxGeometry x="1722" y="68" width="120" height="60" as="geometry" />
        </mxCell>
        <mxCell id="sBReZjQCWEgLip0QU0mO-15" value="" style="shape=message;html=1;html=1;outlineConnect=0;labelPosition=center;verticalLabelPosition=bottom;align=center;verticalAlign=top;fillColor=#f8cecc;strokeColor=#b85450;movable=1;resizable=1;rotatable=1;deletable=1;editable=1;locked=0;connectable=1;" parent="fRR_I6OSnF6bhWmkqqXn-74" vertex="1">
          <mxGeometry x="1914.5" y="90.5" width="25" height="15" as="geometry" />
        </mxCell>
        <mxCell id="jFqjhd8Gb6i0be8WSBUd-6" style="edgeStyle=orthogonalEdgeStyle;rounded=0;orthogonalLoop=1;jettySize=auto;html=1;entryX=0;entryY=0.5;entryDx=0;entryDy=0;" parent="fRR_I6OSnF6bhWmkqqXn-74" source="fRR_I6OSnF6bhWmkqqXn-84" target="fRR_I6OSnF6bhWmkqqXn-88" edge="1">
          <mxGeometry relative="1" as="geometry" />
        </mxCell>
        <mxCell id="fRR_I6OSnF6bhWmkqqXn-84" value="Atualizar lista" style="rounded=1;whiteSpace=wrap;html=1;movable=1;resizable=1;rotatable=1;deletable=1;editable=1;locked=0;connectable=1;" parent="fRR_I6OSnF6bhWmkqqXn-74" vertex="1">
          <mxGeometry x="1375" y="17" width="120" height="60" as="geometry" />
        </mxCell>
        <mxCell id="fRR_I6OSnF6bhWmkqqXn-85" style="edgeStyle=orthogonalEdgeStyle;rounded=0;orthogonalLoop=1;jettySize=auto;html=1;movable=1;resizable=1;rotatable=1;deletable=1;editable=1;locked=0;connectable=1;entryX=0;entryY=0.5;entryDx=0;entryDy=0;entryPerimeter=0;" parent="fRR_I6OSnF6bhWmkqqXn-74" source="fRR_I6OSnF6bhWmkqqXn-81" edge="1">
          <mxGeometry relative="1" as="geometry">
            <mxPoint x="1279" y="98.875" as="targetPoint" />
          </mxGeometry>
        </mxCell>
        <mxCell id="fRR_I6OSnF6bhWmkqqXn-90" value="" style="ellipse;whiteSpace=wrap;html=1;aspect=fixed;fillColor=#d5e8d4;strokeColor=#82b366;" parent="fRR_I6OSnF6bhWmkqqXn-74" vertex="1">
          <mxGeometry x="668" y="303.25" width="45" height="45" as="geometry" />
        </mxCell>
        <mxCell id="fRR_I6OSnF6bhWmkqqXn-91" value="" style="shape=message;html=1;html=1;outlineConnect=0;labelPosition=center;verticalLabelPosition=bottom;align=center;verticalAlign=top;fillColor=#d5e8d4;strokeColor=#82b366;" parent="fRR_I6OSnF6bhWmkqqXn-74" vertex="1">
          <mxGeometry x="678" y="318.25" width="25" height="15" as="geometry" />
        </mxCell>
        <mxCell id="fRR_I6OSnF6bhWmkqqXn-92" value="Obter ingrediente" style="rounded=1;whiteSpace=wrap;html=1;" parent="fRR_I6OSnF6bhWmkqqXn-74" vertex="1">
          <mxGeometry x="764" y="295.25" width="160" height="60" as="geometry" />
        </mxCell>
        <mxCell id="fRR_I6OSnF6bhWmkqqXn-93" value="" style="endArrow=classic;html=1;rounded=0;exitX=1;exitY=0.5;exitDx=0;exitDy=0;entryX=0;entryY=0.5;entryDx=0;entryDy=0;" parent="fRR_I6OSnF6bhWmkqqXn-74" source="fRR_I6OSnF6bhWmkqqXn-90" target="fRR_I6OSnF6bhWmkqqXn-92" edge="1">
          <mxGeometry width="50" height="50" relative="1" as="geometry">
            <mxPoint x="703" y="531.25" as="sourcePoint" />
            <mxPoint x="753" y="481.25" as="targetPoint" />
          </mxGeometry>
        </mxCell>
        <mxCell id="fRR_I6OSnF6bhWmkqqXn-94" value="" style="ellipse;whiteSpace=wrap;html=1;aspect=fixed;fillColor=#f8cecc;strokeColor=#b85450;" parent="fRR_I6OSnF6bhWmkqqXn-74" vertex="1">
          <mxGeometry x="964" y="302.75" width="45" height="45" as="geometry" />
        </mxCell>
        <mxCell id="fRR_I6OSnF6bhWmkqqXn-95" value="" style="shape=message;html=1;html=1;outlineConnect=0;labelPosition=center;verticalLabelPosition=bottom;align=center;verticalAlign=top;fillColor=#f8cecc;strokeColor=#b85450;" parent="fRR_I6OSnF6bhWmkqqXn-74" vertex="1">
          <mxGeometry x="974" y="317.75" width="25" height="15" as="geometry" />
        </mxCell>
        <mxCell id="fRR_I6OSnF6bhWmkqqXn-96" value="" style="endArrow=classic;html=1;rounded=0;exitX=1;exitY=0.5;exitDx=0;exitDy=0;entryX=0;entryY=0.5;entryDx=0;entryDy=0;" parent="fRR_I6OSnF6bhWmkqqXn-74" target="fRR_I6OSnF6bhWmkqqXn-94" edge="1">
          <mxGeometry width="50" height="50" relative="1" as="geometry">
            <mxPoint x="924" y="325.25" as="sourcePoint" />
            <mxPoint x="1054" y="647.25" as="targetPoint" />
          </mxGeometry>
        </mxCell>
        <mxCell id="fRR_I6OSnF6bhWmkqqXn-97" value="" style="endArrow=classic;html=1;rounded=0;dashed=1;exitX=0.25;exitY=1;exitDx=0;exitDy=0;entryX=0.25;entryY=0;entryDx=0;entryDy=0;" parent="fRR_I6OSnF6bhWmkqqXn-74" source="fRR_I6OSnF6bhWmkqqXn-79" target="fRR_I6OSnF6bhWmkqqXn-92" edge="1">
          <mxGeometry width="50" height="50" relative="1" as="geometry">
            <mxPoint x="802" y="-80.75" as="sourcePoint" />
            <mxPoint x="798" y="80.25" as="targetPoint" />
          </mxGeometry>
        </mxCell>
        <mxCell id="fRR_I6OSnF6bhWmkqqXn-98" value="Solicitação de&amp;nbsp;&lt;div&gt;ingrediente&lt;/div&gt;" style="edgeLabel;html=1;align=center;verticalAlign=middle;resizable=0;points=[];" parent="fRR_I6OSnF6bhWmkqqXn-97" connectable="0" vertex="1">
          <mxGeometry x="-0.0438" y="1" relative="1" as="geometry">
            <mxPoint x="-1" y="39" as="offset" />
          </mxGeometry>
        </mxCell>
        <mxCell id="fRR_I6OSnF6bhWmkqqXn-99" value="" style="endArrow=classic;html=1;rounded=0;dashed=1;entryX=0.75;entryY=1;entryDx=0;entryDy=0;exitX=0.75;exitY=0;exitDx=0;exitDy=0;" parent="fRR_I6OSnF6bhWmkqqXn-74" source="fRR_I6OSnF6bhWmkqqXn-92" target="fRR_I6OSnF6bhWmkqqXn-79" edge="1">
          <mxGeometry width="50" height="50" relative="1" as="geometry">
            <mxPoint x="883" y="288" as="sourcePoint" />
            <mxPoint x="894" y="-80.75" as="targetPoint" />
          </mxGeometry>
        </mxCell>
        <mxCell id="fRR_I6OSnF6bhWmkqqXn-100" value="Novos&amp;nbsp;&lt;div&gt;ingrediente&lt;/div&gt;" style="edgeLabel;html=1;align=center;verticalAlign=middle;resizable=0;points=[];" parent="fRR_I6OSnF6bhWmkqqXn-99" connectable="0" vertex="1">
          <mxGeometry x="0.0248" y="1" relative="1" as="geometry">
            <mxPoint x="1" y="-28" as="offset" />
          </mxGeometry>
        </mxCell>
        <mxCell id="fRR_I6OSnF6bhWmkqqXn-101" value="Ingrediente" style="edgeStyle=orthogonalEdgeStyle;rounded=0;orthogonalLoop=1;jettySize=auto;html=1;entryX=0.5;entryY=0;entryDx=0;entryDy=0;dashed=1;exitX=0.5;exitY=1;exitDx=0;exitDy=0;movable=1;resizable=1;rotatable=1;deletable=1;editable=1;locked=0;connectable=1;" parent="fRR_I6OSnF6bhWmkqqXn-74" target="fRR_I6OSnF6bhWmkqqXn-80" edge="1">
          <mxGeometry x="-0.5806" y="4" relative="1" as="geometry">
            <mxPoint x="1011.5" y="-108" as="sourcePoint" />
            <mxPoint x="1011.5" y="49" as="targetPoint" />
            <mxPoint as="offset" />
          </mxGeometry>
        </mxCell>
        <mxCell id="fRR_I6OSnF6bhWmkqqXn-102" value="Quantidade" style="edgeStyle=orthogonalEdgeStyle;rounded=0;orthogonalLoop=1;jettySize=auto;html=1;exitX=0.5;exitY=1;exitDx=0;exitDy=0;entryX=0.5;entryY=0;entryDx=0;entryDy=0;dashed=1;movable=1;resizable=1;rotatable=1;deletable=1;editable=1;locked=0;connectable=1;" parent="fRR_I6OSnF6bhWmkqqXn-74" source="fRR_I6OSnF6bhWmkqqXn-71" target="fRR_I6OSnF6bhWmkqqXn-81" edge="1">
          <mxGeometry x="-0.1875" relative="1" as="geometry">
            <mxPoint as="offset" />
          </mxGeometry>
        </mxCell>
        <mxCell id="fRR_I6OSnF6bhWmkqqXn-108" value="" style="endArrow=classic;html=1;rounded=0;dashed=1;entryX=0.25;entryY=1;entryDx=0;entryDy=0;exitX=0.578;exitY=0.025;exitDx=0;exitDy=0;exitPerimeter=0;movable=1;resizable=1;rotatable=1;deletable=1;editable=1;locked=0;connectable=1;" parent="fRR_I6OSnF6bhWmkqqXn-74" source="fRR_I6OSnF6bhWmkqqXn-79" target="fRR_I6OSnF6bhWmkqqXn-62" edge="1">
          <mxGeometry width="50" height="50" relative="1" as="geometry">
            <mxPoint x="904" y="68" as="sourcePoint" />
            <mxPoint x="894" y="141" as="targetPoint" />
          </mxGeometry>
        </mxCell>
        <mxCell id="fRR_I6OSnF6bhWmkqqXn-109" value="Ingredientes" style="edgeLabel;html=1;align=center;verticalAlign=middle;resizable=1;points=[];movable=1;rotatable=1;deletable=1;editable=1;locked=0;connectable=1;" parent="fRR_I6OSnF6bhWmkqqXn-108" connectable="0" vertex="1">
          <mxGeometry x="0.0248" y="1" relative="1" as="geometry">
            <mxPoint x="10" y="25" as="offset" />
          </mxGeometry>
        </mxCell>
        <mxCell id="n1cJlJ-1MoOOCQJSPrWZ-6" style="edgeStyle=orthogonalEdgeStyle;rounded=0;orthogonalLoop=1;jettySize=auto;html=1;exitX=0.75;exitY=1;exitDx=0;exitDy=0;entryX=0.25;entryY=0;entryDx=0;entryDy=0;dashed=1;" parent="fRR_I6OSnF6bhWmkqqXn-74" source="fRR_I6OSnF6bhWmkqqXn-62" target="fRR_I6OSnF6bhWmkqqXn-80" edge="1">
          <mxGeometry relative="1" as="geometry" />
        </mxCell>
        <mxCell id="fRR_I6OSnF6bhWmkqqXn-68" style="edgeStyle=orthogonalEdgeStyle;rounded=0;orthogonalLoop=1;jettySize=auto;html=1;entryX=0.5;entryY=0;entryDx=0;entryDy=0;movable=1;resizable=1;rotatable=1;deletable=1;editable=1;locked=0;connectable=1;" parent="fRR_I6OSnF6bhWmkqqXn-74" source="fRR_I6OSnF6bhWmkqqXn-62" target="fRR_I6OSnF6bhWmkqqXn-71" edge="1">
          <mxGeometry relative="1" as="geometry">
            <mxPoint x="1133" y="-149" as="targetPoint" />
          </mxGeometry>
        </mxCell>
        <mxCell id="fRR_I6OSnF6bhWmkqqXn-69" value="Digitar ingrediente" style="rounded=1;whiteSpace=wrap;html=1;movable=1;resizable=1;rotatable=1;deletable=1;editable=1;locked=0;connectable=1;" parent="fRR_I6OSnF6bhWmkqqXn-74" vertex="1">
          <mxGeometry x="949" y="-149" width="125" height="60" as="geometry" />
        </mxCell>
        <mxCell id="fRR_I6OSnF6bhWmkqqXn-70" style="edgeStyle=orthogonalEdgeStyle;rounded=0;orthogonalLoop=1;jettySize=auto;html=1;entryX=0;entryY=0.5;entryDx=0;entryDy=0;movable=1;resizable=1;rotatable=1;deletable=1;editable=1;locked=0;connectable=1;" parent="fRR_I6OSnF6bhWmkqqXn-74" source="fRR_I6OSnF6bhWmkqqXn-69" target="fRR_I6OSnF6bhWmkqqXn-71" edge="1">
          <mxGeometry relative="1" as="geometry">
            <mxPoint x="1103" y="-119.125" as="targetPoint" />
          </mxGeometry>
        </mxCell>
        <mxCell id="fRR_I6OSnF6bhWmkqqXn-71" value="Digitar quantidades mínima" style="rounded=1;whiteSpace=wrap;html=1;movable=1;resizable=1;rotatable=1;deletable=1;editable=1;locked=0;connectable=1;" parent="fRR_I6OSnF6bhWmkqqXn-74" vertex="1">
          <mxGeometry x="1120.5" y="-148.63" width="125" height="60" as="geometry" />
        </mxCell>
        <mxCell id="fRR_I6OSnF6bhWmkqqXn-105" style="edgeStyle=orthogonalEdgeStyle;rounded=0;orthogonalLoop=1;jettySize=auto;html=1;movable=1;resizable=1;rotatable=1;deletable=1;editable=1;locked=0;connectable=1;" parent="fRR_I6OSnF6bhWmkqqXn-74" source="fRR_I6OSnF6bhWmkqqXn-71" target="fRR_I6OSnF6bhWmkqqXn-104" edge="1">
          <mxGeometry relative="1" as="geometry">
            <mxPoint x="1348" y="-118.63000000000011" as="targetPoint" />
          </mxGeometry>
        </mxCell>
        <mxCell id="fRR_I6OSnF6bhWmkqqXn-111" value="Lista" style="edgeStyle=orthogonalEdgeStyle;rounded=0;orthogonalLoop=1;jettySize=auto;html=1;entryX=0.75;entryY=1;entryDx=0;entryDy=0;dashed=1;movable=1;resizable=1;rotatable=1;deletable=1;editable=1;locked=0;connectable=1;exitX=0.5;exitY=0;exitDx=0;exitDy=0;" parent="fRR_I6OSnF6bhWmkqqXn-74" source="fRR_I6OSnF6bhWmkqqXn-84" target="fRR_I6OSnF6bhWmkqqXn-104" edge="1">
          <mxGeometry x="-0.2364" relative="1" as="geometry">
            <mxPoint x="1329" y="-32" as="sourcePoint" />
            <mxPoint x="1337" y="81" as="targetPoint" />
            <mxPoint as="offset" />
            <Array as="points">
              <mxPoint x="1439" y="17" />
            </Array>
          </mxGeometry>
        </mxCell>
        <mxCell id="fRR_I6OSnF6bhWmkqqXn-110" value="Confirmação" style="edgeStyle=orthogonalEdgeStyle;rounded=0;orthogonalLoop=1;jettySize=auto;html=1;exitX=0.25;exitY=1;exitDx=0;exitDy=0;dashed=1;movable=1;resizable=1;rotatable=1;deletable=1;editable=1;locked=0;connectable=1;entryX=0.25;entryY=0;entryDx=0;entryDy=0;" parent="fRR_I6OSnF6bhWmkqqXn-74" source="fRR_I6OSnF6bhWmkqqXn-104" target="fRR_I6OSnF6bhWmkqqXn-84" edge="1">
          <mxGeometry x="-0.2003" relative="1" as="geometry">
            <mxPoint x="1202" y="-79" as="sourcePoint" />
            <mxPoint x="1263" y="-61" as="targetPoint" />
            <mxPoint as="offset" />
            <Array as="points">
              <mxPoint x="1379" y="-50" />
              <mxPoint x="1405" y="-50" />
            </Array>
          </mxGeometry>
        </mxCell>
        <mxCell id="fRR_I6OSnF6bhWmkqqXn-103" style="edgeStyle=orthogonalEdgeStyle;rounded=0;orthogonalLoop=1;jettySize=auto;html=1;entryX=0;entryY=0.5;entryDx=0;entryDy=0;movable=1;resizable=1;rotatable=1;deletable=1;editable=1;locked=0;connectable=1;" parent="fRR_I6OSnF6bhWmkqqXn-74" source="fRR_I6OSnF6bhWmkqqXn-104" target="fRR_I6OSnF6bhWmkqqXn-61" edge="1">
          <mxGeometry relative="1" as="geometry">
            <mxPoint x="1722" y="-119" as="targetPoint" />
          </mxGeometry>
        </mxCell>
        <mxCell id="fRR_I6OSnF6bhWmkqqXn-61" value="" style="ellipse;whiteSpace=wrap;html=1;aspect=fixed;fillColor=#f8cecc;strokeColor=#b85450;movable=1;resizable=1;rotatable=1;deletable=1;editable=1;locked=0;connectable=1;" parent="fRR_I6OSnF6bhWmkqqXn-74" vertex="1">
          <mxGeometry x="1912" y="-141.13" width="45" height="45" as="geometry" />
        </mxCell>
        <mxCell id="n1cJlJ-1MoOOCQJSPrWZ-7" style="edgeStyle=orthogonalEdgeStyle;rounded=0;orthogonalLoop=1;jettySize=auto;html=1;exitX=1;exitY=0.5;exitDx=0;exitDy=0;entryX=0;entryY=0.5;entryDx=0;entryDy=0;" parent="fRR_I6OSnF6bhWmkqqXn-74" target="fRR_I6OSnF6bhWmkqqXn-61" edge="1">
          <mxGeometry relative="1" as="geometry">
            <mxPoint x="1143" y="-301" as="sourcePoint" />
          </mxGeometry>
        </mxCell>
        <mxCell id="fRR_I6OSnF6bhWmkqqXn-76" value="" style="shape=message;html=1;html=1;outlineConnect=0;labelPosition=center;verticalLabelPosition=bottom;align=center;verticalAlign=top;fillColor=#d5e8d4;strokeColor=#82b366;movable=1;resizable=1;rotatable=1;deletable=1;editable=1;locked=0;connectable=1;" parent="fRR_I6OSnF6bhWmkqqXn-74" vertex="1">
          <mxGeometry x="539" y="90.5" width="25" height="15" as="geometry" />
        </mxCell>
        <mxCell id="fRR_I6OSnF6bhWmkqqXn-75" value="" style="ellipse;whiteSpace=wrap;html=1;aspect=fixed;fillColor=#d5e8d4;strokeColor=#82b366;movable=1;resizable=1;rotatable=1;deletable=1;editable=1;locked=0;connectable=1;" parent="fRR_I6OSnF6bhWmkqqXn-74" vertex="1">
          <mxGeometry x="529" y="75.5" width="45" height="45" as="geometry" />
        </mxCell>
        <mxCell id="n1cJlJ-1MoOOCQJSPrWZ-18" value="" style="rounded=1;whiteSpace=wrap;html=1;" parent="fRR_I6OSnF6bhWmkqqXn-74" vertex="1">
          <mxGeometry x="161" y="70" width="120" height="60" as="geometry" />
        </mxCell>
        <mxCell id="fRR_I6OSnF6bhWmkqqXn-89" value="API" style="swimlane;horizontal=0;whiteSpace=wrap;html=1;fillColor=#dae8fc;strokeColor=#6c8ebf;" parent="1" vertex="1">
          <mxGeometry x="2510" y="1167.75" width="1529" height="200" as="geometry" />
        </mxCell>
        <mxCell id="sBReZjQCWEgLip0QU0mO-21" style="edgeStyle=orthogonalEdgeStyle;rounded=0;orthogonalLoop=1;jettySize=auto;html=1;exitX=0.25;exitY=1;exitDx=0;exitDy=0;entryX=0.25;entryY=0;entryDx=0;entryDy=0;dashed=1;" parent="1" source="1BzvqXKQm6UPAYvCy_TO-78" target="1BzvqXKQm6UPAYvCy_TO-79" edge="1">
          <mxGeometry relative="1" as="geometry" />
        </mxCell>
        <mxCell id="h9Z5dXRr7wYHicpKzBdA-13" style="edgeStyle=orthogonalEdgeStyle;rounded=0;orthogonalLoop=1;jettySize=auto;html=1;exitX=1;exitY=0.5;exitDx=0;exitDy=0;entryX=0.5;entryY=1;entryDx=0;entryDy=0;" parent="1" source="h9Z5dXRr7wYHicpKzBdA-7" target="OjrucDtKJIPMSF6clYTV-1" edge="1">
          <mxGeometry relative="1" as="geometry">
            <Array as="points">
              <mxPoint x="3298" y="1860" />
              <mxPoint x="3340" y="1860" />
              <mxPoint x="3340" y="1700" />
              <mxPoint x="3757" y="1700" />
            </Array>
          </mxGeometry>
        </mxCell>
        <mxCell id="bWT7bV69h-5A01HJKSbz-88" value="" style="endArrow=classic;html=1;rounded=0;dashed=1;exitX=0.833;exitY=1;exitDx=0;exitDy=0;entryX=0.25;entryY=0;entryDx=0;entryDy=0;exitPerimeter=0;" parent="1" source="bWT7bV69h-5A01HJKSbz-99" target="bWT7bV69h-5A01HJKSbz-89" edge="1">
          <mxGeometry width="50" height="50" relative="1" as="geometry">
            <mxPoint x="1295" y="1100" as="sourcePoint" />
            <mxPoint x="836" y="1008" as="targetPoint" />
            <Array as="points">
              <mxPoint x="159" y="965" />
              <mxPoint x="852" y="965" />
            </Array>
          </mxGeometry>
        </mxCell>
        <mxCell id="bWT7bV69h-5A01HJKSbz-90" value="Categorias selecionadas" style="edgeLabel;html=1;align=center;verticalAlign=middle;resizable=0;points=[];" parent="bWT7bV69h-5A01HJKSbz-88" connectable="0" vertex="1">
          <mxGeometry x="-0.4333" y="2" relative="1" as="geometry">
            <mxPoint as="offset" />
          </mxGeometry>
        </mxCell>
        <mxCell id="e-g3r_r-w1GOx0NY_PIq-3" value="" style="endArrow=block;dashed=1;html=1;dashPattern=1 3;strokeWidth=2;rounded=0;exitX=0.75;exitY=1;exitDx=0;exitDy=0;entryX=0.5;entryY=0;entryDx=0;entryDy=0;endFill=1;" parent="1" source="bWT7bV69h-5A01HJKSbz-188" target="bWT7bV69h-5A01HJKSbz-89" edge="1">
          <mxGeometry width="50" height="50" relative="1" as="geometry">
            <mxPoint x="822" y="1567" as="sourcePoint" />
            <mxPoint x="872" y="1517" as="targetPoint" />
            <Array as="points">
              <mxPoint x="509" y="987" />
              <mxPoint x="891" y="987" />
            </Array>
          </mxGeometry>
        </mxCell>
        <mxCell id="e-g3r_r-w1GOx0NY_PIq-4" value="Ingredientes Selecionados" style="edgeLabel;html=1;align=center;verticalAlign=middle;resizable=0;points=[];" parent="e-g3r_r-w1GOx0NY_PIq-3" connectable="0" vertex="1">
          <mxGeometry x="-0.3297" y="-3" relative="1" as="geometry">
            <mxPoint as="offset" />
          </mxGeometry>
        </mxCell>
        <mxCell id="n1cJlJ-1MoOOCQJSPrWZ-5" style="edgeStyle=orthogonalEdgeStyle;rounded=0;orthogonalLoop=1;jettySize=auto;html=1;exitX=0.5;exitY=1;exitDx=0;exitDy=0;entryX=0;entryY=0.5;entryDx=0;entryDy=0;dashed=1;" parent="1" source="n1cJlJ-1MoOOCQJSPrWZ-2" target="h9Z5dXRr7wYHicpKzBdA-7" edge="1">
          <mxGeometry relative="1" as="geometry">
            <mxPoint x="3160.521569293479" y="1821.7827095363455" as="targetPoint" />
          </mxGeometry>
        </mxCell>
        <mxCell id="WcHbNQHTPXMGAWHQX7rH-1" value="To Be - Atualizar Informações" style="text;html=1;align=center;verticalAlign=middle;resizable=0;points=[];autosize=1;strokeColor=#666666;fillColor=#f5f5f5;fontSize=23;fontColor=#333333;" parent="1" vertex="1">
          <mxGeometry x="-93" y="1558" width="318" height="40" as="geometry" />
        </mxCell>
        <mxCell id="WcHbNQHTPXMGAWHQX7rH-2" value="API" style="swimlane;horizontal=0;whiteSpace=wrap;html=1;fillColor=#dae8fc;strokeColor=#6c8ebf;startSize=23;" parent="1" vertex="1">
          <mxGeometry x="-130" y="1836" width="895" height="200" as="geometry" />
        </mxCell>
        <mxCell id="WcHbNQHTPXMGAWHQX7rH-19" value="" style="ellipse;whiteSpace=wrap;html=1;aspect=fixed;fillColor=#d5e8d4;strokeColor=#82b366;" parent="WcHbNQHTPXMGAWHQX7rH-2" vertex="1">
          <mxGeometry x="35" y="83" width="45" height="45" as="geometry" />
        </mxCell>
        <mxCell id="WcHbNQHTPXMGAWHQX7rH-20" value="" style="shape=message;html=1;html=1;outlineConnect=0;labelPosition=center;verticalLabelPosition=bottom;align=center;verticalAlign=top;fillColor=#d5e8d4;strokeColor=#82b366;" parent="WcHbNQHTPXMGAWHQX7rH-2" vertex="1">
          <mxGeometry x="45" y="98" width="25" height="15" as="geometry" />
        </mxCell>
        <mxCell id="WcHbNQHTPXMGAWHQX7rH-21" value="Atualizar Ingredientes" style="rounded=1;whiteSpace=wrap;html=1;" parent="WcHbNQHTPXMGAWHQX7rH-2" vertex="1">
          <mxGeometry x="176" y="74" width="120" height="60" as="geometry" />
        </mxCell>
        <mxCell id="WcHbNQHTPXMGAWHQX7rH-23" value="" style="endArrow=classic;html=1;rounded=0;exitX=1;exitY=0.5;exitDx=0;exitDy=0;entryX=0;entryY=0.5;entryDx=0;entryDy=0;" parent="WcHbNQHTPXMGAWHQX7rH-2" source="WcHbNQHTPXMGAWHQX7rH-19" target="WcHbNQHTPXMGAWHQX7rH-21" edge="1">
          <mxGeometry width="50" height="50" relative="1" as="geometry">
            <mxPoint x="331" y="331" as="sourcePoint" />
            <mxPoint x="391" y="331" as="targetPoint" />
          </mxGeometry>
        </mxCell>
        <mxCell id="WcHbNQHTPXMGAWHQX7rH-25" value="Atualizar Categorias" style="rounded=1;whiteSpace=wrap;html=1;" parent="WcHbNQHTPXMGAWHQX7rH-2" vertex="1">
          <mxGeometry x="387" y="74" width="120" height="60" as="geometry" />
        </mxCell>
        <mxCell id="WcHbNQHTPXMGAWHQX7rH-24" value="" style="endArrow=classic;html=1;rounded=0;exitX=1;exitY=0.5;exitDx=0;exitDy=0;entryX=0;entryY=0.5;entryDx=0;entryDy=0;" parent="WcHbNQHTPXMGAWHQX7rH-2" source="WcHbNQHTPXMGAWHQX7rH-21" target="WcHbNQHTPXMGAWHQX7rH-25" edge="1">
          <mxGeometry width="50" height="50" relative="1" as="geometry">
            <mxPoint x="332" y="340" as="sourcePoint" />
            <mxPoint x="422" y="104" as="targetPoint" />
          </mxGeometry>
        </mxCell>
        <mxCell id="WcHbNQHTPXMGAWHQX7rH-26" value="Atualizar Receitas" style="rounded=1;whiteSpace=wrap;html=1;" parent="WcHbNQHTPXMGAWHQX7rH-2" vertex="1">
          <mxGeometry x="592" y="75" width="120" height="60" as="geometry" />
        </mxCell>
        <mxCell id="WcHbNQHTPXMGAWHQX7rH-27" value="" style="endArrow=classic;html=1;rounded=0;exitX=1;exitY=0.5;exitDx=0;exitDy=0;entryX=0;entryY=0.5;entryDx=0;entryDy=0;" parent="WcHbNQHTPXMGAWHQX7rH-2" source="WcHbNQHTPXMGAWHQX7rH-25" target="WcHbNQHTPXMGAWHQX7rH-26" edge="1">
          <mxGeometry width="50" height="50" relative="1" as="geometry">
            <mxPoint x="332" y="340" as="sourcePoint" />
            <mxPoint x="392" y="340" as="targetPoint" />
          </mxGeometry>
        </mxCell>
        <mxCell id="WcHbNQHTPXMGAWHQX7rH-29" value="" style="ellipse;whiteSpace=wrap;html=1;aspect=fixed;fillColor=#f8cecc;strokeColor=#b85450;" parent="WcHbNQHTPXMGAWHQX7rH-2" vertex="1">
          <mxGeometry x="819" y="82" width="45" height="45" as="geometry" />
        </mxCell>
        <mxCell id="WcHbNQHTPXMGAWHQX7rH-30" value="" style="shape=message;html=1;html=1;outlineConnect=0;labelPosition=center;verticalLabelPosition=bottom;align=center;verticalAlign=top;fillColor=#f8cecc;strokeColor=#b85450;" parent="WcHbNQHTPXMGAWHQX7rH-2" vertex="1">
          <mxGeometry x="829" y="97" width="25" height="15" as="geometry" />
        </mxCell>
        <mxCell id="WcHbNQHTPXMGAWHQX7rH-28" value="" style="endArrow=classic;html=1;rounded=0;exitX=1;exitY=0.5;exitDx=0;exitDy=0;entryX=0;entryY=0.5;entryDx=0;entryDy=0;" parent="WcHbNQHTPXMGAWHQX7rH-2" source="WcHbNQHTPXMGAWHQX7rH-26" target="WcHbNQHTPXMGAWHQX7rH-29" edge="1">
          <mxGeometry width="50" height="50" relative="1" as="geometry">
            <mxPoint x="573" y="326" as="sourcePoint" />
            <mxPoint x="633" y="326" as="targetPoint" />
          </mxGeometry>
        </mxCell>
        <mxCell id="WcHbNQHTPXMGAWHQX7rH-3" value="Web-Scraper" style="swimlane;horizontal=0;whiteSpace=wrap;html=1;fillColor=#dae8fc;strokeColor=#6c8ebf;startSize=23;" parent="1" vertex="1">
          <mxGeometry x="-130" y="1617" width="895" height="200" as="geometry" />
        </mxCell>
        <mxCell id="WcHbNQHTPXMGAWHQX7rH-14" value="Obter dados de receitas Web" style="rounded=1;whiteSpace=wrap;html=1;" parent="WcHbNQHTPXMGAWHQX7rH-3" vertex="1">
          <mxGeometry x="191" y="72" width="120" height="60" as="geometry" />
        </mxCell>
        <mxCell id="WcHbNQHTPXMGAWHQX7rH-15" value="" style="endArrow=classic;html=1;rounded=0;exitX=1;exitY=0.5;exitDx=0;exitDy=0;entryX=0;entryY=0.5;entryDx=0;entryDy=0;" parent="WcHbNQHTPXMGAWHQX7rH-3" source="WcHbNQHTPXMGAWHQX7rH-16" target="WcHbNQHTPXMGAWHQX7rH-14" edge="1">
          <mxGeometry width="50" height="50" relative="1" as="geometry">
            <mxPoint x="88.99999999999977" y="103.5" as="sourcePoint" />
            <mxPoint x="362" y="299" as="targetPoint" />
          </mxGeometry>
        </mxCell>
        <mxCell id="WcHbNQHTPXMGAWHQX7rH-16" value="" style="ellipse;whiteSpace=wrap;html=1;aspect=fixed;fillColor=#d5e8d4;strokeColor=#82b366;" parent="WcHbNQHTPXMGAWHQX7rH-3" vertex="1">
          <mxGeometry x="38" y="78" width="45" height="45" as="geometry" />
        </mxCell>
        <mxCell id="WcHbNQHTPXMGAWHQX7rH-17" value="" style="ellipse;whiteSpace=wrap;html=1;aspect=fixed;fillColor=#f8cecc;strokeColor=#b85450;" parent="WcHbNQHTPXMGAWHQX7rH-3" vertex="1">
          <mxGeometry x="451" y="79" width="45" height="45" as="geometry" />
        </mxCell>
        <mxCell id="WcHbNQHTPXMGAWHQX7rH-18" value="" style="endArrow=classic;html=1;rounded=0;exitX=1;exitY=0.5;exitDx=0;exitDy=0;entryX=0;entryY=0.5;entryDx=0;entryDy=0;" parent="WcHbNQHTPXMGAWHQX7rH-3" source="WcHbNQHTPXMGAWHQX7rH-14" target="WcHbNQHTPXMGAWHQX7rH-17" edge="1">
          <mxGeometry width="50" height="50" relative="1" as="geometry">
            <mxPoint x="-98" y="308" as="sourcePoint" />
            <mxPoint x="-48" y="258" as="targetPoint" />
          </mxGeometry>
        </mxCell>
        <mxCell id="WcHbNQHTPXMGAWHQX7rH-6" value="" style="ellipse;whiteSpace=wrap;html=1;aspect=fixed;fillColor=#d5e8d4;strokeColor=#82b366;" parent="1" vertex="1">
          <mxGeometry x="-29" y="2135" width="45" height="45" as="geometry" />
        </mxCell>
        <mxCell id="WcHbNQHTPXMGAWHQX7rH-7" value="" style="shape=message;html=1;html=1;outlineConnect=0;labelPosition=center;verticalLabelPosition=bottom;align=center;verticalAlign=top;fillColor=#d5e8d4;strokeColor=#82b366;" parent="1" vertex="1">
          <mxGeometry x="-19" y="2150" width="25" height="15" as="geometry" />
        </mxCell>
        <mxCell id="WcHbNQHTPXMGAWHQX7rH-8" value="" style="ellipse;whiteSpace=wrap;html=1;aspect=fixed;fillColor=#f8cecc;strokeColor=#b85450;" parent="1" vertex="1">
          <mxGeometry x="51" y="2135" width="45" height="45" as="geometry" />
        </mxCell>
        <mxCell id="WcHbNQHTPXMGAWHQX7rH-9" value="" style="shape=message;html=1;html=1;outlineConnect=0;labelPosition=center;verticalLabelPosition=bottom;align=center;verticalAlign=top;fillColor=#f8cecc;strokeColor=#b85450;" parent="1" vertex="1">
          <mxGeometry x="61" y="2150" width="25" height="15" as="geometry" />
        </mxCell>
        <mxCell id="WcHbNQHTPXMGAWHQX7rH-10" value="" style="ellipse;whiteSpace=wrap;html=1;aspect=fixed;fillColor=#d5e8d4;strokeColor=#82b366;" parent="1" vertex="1">
          <mxGeometry x="-79" y="2135" width="45" height="45" as="geometry" />
        </mxCell>
        <mxCell id="WcHbNQHTPXMGAWHQX7rH-11" value="" style="ellipse;whiteSpace=wrap;html=1;aspect=fixed;fillColor=#f8cecc;strokeColor=#b85450;" parent="1" vertex="1">
          <mxGeometry x="101" y="2135" width="45" height="45" as="geometry" />
        </mxCell>
        <mxCell id="WcHbNQHTPXMGAWHQX7rH-12" value="" style="endArrow=classic;html=1;rounded=0;" parent="1" edge="1">
          <mxGeometry width="50" height="50" relative="1" as="geometry">
            <mxPoint x="191" y="2157" as="sourcePoint" />
            <mxPoint x="251" y="2157" as="targetPoint" />
          </mxGeometry>
        </mxCell>
        <mxCell id="WcHbNQHTPXMGAWHQX7rH-13" value="" style="endArrow=classic;html=1;rounded=0;dashed=1;" parent="1" edge="1">
          <mxGeometry width="50" height="50" relative="1" as="geometry">
            <mxPoint x="191" y="2167" as="sourcePoint" />
            <mxPoint x="251" y="2167" as="targetPoint" />
          </mxGeometry>
        </mxCell>
        <mxCell id="WcHbNQHTPXMGAWHQX7rH-22" value="" style="endArrow=classic;html=1;rounded=0;dashed=1;exitX=0.144;exitY=0.945;exitDx=0;exitDy=0;exitPerimeter=0;entryX=0.25;entryY=0;entryDx=0;entryDy=0;" parent="1" source="WcHbNQHTPXMGAWHQX7rH-14" target="WcHbNQHTPXMGAWHQX7rH-21" edge="1">
          <mxGeometry width="50" height="50" relative="1" as="geometry">
            <mxPoint x="201" y="2177" as="sourcePoint" />
            <mxPoint x="261" y="2177" as="targetPoint" />
          </mxGeometry>
        </mxCell>
        <mxCell id="WcHbNQHTPXMGAWHQX7rH-31" value="Dados&amp;nbsp;&lt;div&gt;de receitas&lt;/div&gt;" style="edgeLabel;html=1;align=center;verticalAlign=middle;resizable=0;points=[];" parent="WcHbNQHTPXMGAWHQX7rH-22" vertex="1" connectable="0">
          <mxGeometry x="-0.5823" y="-1" relative="1" as="geometry">
            <mxPoint as="offset" />
          </mxGeometry>
        </mxCell>
      </root>
    </mxGraphModel>
  </diagram>
</mxfile>
